<svg xmlns="http://www.w3.org/2000/svg" viewBox="0 0 52.73 34.93"><defs><style>.cls-1{fill:none;stroke:#c7c0b8;stroke-linecap:round;stroke-linejoin:round;stroke-width:1.65px;}</style></defs><g id="Capa_2" data-name="Capa 2"><g id="Capa_1-2" data-name="Capa 1"><path class="cls-1" d="M31.14.82H7.25"/><path class="cls-1" d="M31.14,3.54H7.25"/><path class="cls-1" d="M9.23,6.34V.82"/><path class="cls-1" d="M29.16,6.34V.82"/><path class="cls-1" d="M18.45,27.19a1.85,1.85,0,0,1,1,.82l.91,1.32H36.74"/><path class="cls-1" d="M9.89,27a2.17,2.17,0,0,0-1.49.91l-.9,1.32h-3a2.56,2.56,0,0,1-2.39-1.82l-.25-1v-.17a35.75,35.75,0,0,1-1-8.73A35.46,35.46,0,0,1,2.06,8.16a2.65,2.65,0,0,1,2.47-1.9H44a3.91,3.91,0,0,1,3.46,2.23l3.71,8.23c.08.25.25.5.33.75a9.15,9.15,0,0,1,.41,2.63v6.43a2.56,2.56,0,0,1-2.55,2.55H46.3"/><path class="cls-1" d="M51.9,26H50.25a1.62,1.62,0,0,1-1.56-1.56v-.66a1.52,1.52,0,0,1,1.56-1.57H51.9"/><path class="cls-1" d="M3.38,15.9H10.3V8.82"/><path class="cls-1" d="M10.3,15.9H23.73"/><path class="cls-1" d="M23.73,8.82V15.9H37.16V8.82"/><path class="cls-1" d="M37.16,15.9H48"/><ellipse class="cls-1" cx="41.6" cy="29.25" rx="4.78" ry="4.86"/><ellipse class="cls-1" cx="14.17" cy="29.25" rx="4.78" ry="4.86"/><path class="cls-1" d="M39.71,18.78V20.6"/><path class="cls-1" d="M22.16,18.78V20.6"/></g></g></svg>