<svg xmlns="http://www.w3.org/2000/svg" viewBox="0 0 60.5 47.55"><defs><style>.cls-1{fill:#c7c0b8;}</style></defs><g id="Capa_2" data-name="Capa 2"><g id="Capa_1-2" data-name="Capa 1"><path class="cls-1" d="M32.82,33.38H26.55a1.47,1.47,0,0,0-1.47,1.47v3.43a1.47,1.47,0,0,0,1.47,1.47h6.27a1.47,1.47,0,0,0,1.47-1.47V34.85A1.47,1.47,0,0,0,32.82,33.38ZM32.55,38H26.82V35.12h5.73Z"/><path class="cls-1" d="M34.29,38.28V34.85a1.47,1.47,0,0,0-1.47-1.47H26.55a1.47,1.47,0,0,0-1.47,1.47v3.43a1.47,1.47,0,0,0,1.47,1.47h6.27A1.47,1.47,0,0,0,34.29,38.28ZM32.55,38H26.82V35.12h5.73Z"/><path class="cls-1" d="M7.43,45.81H2a.87.87,0,0,0,0,1.74H7.43a.87.87,0,0,0,0-1.74Z"/><path class="cls-1" d="M54.85,45.81h-.56a3.15,3.15,0,0,0,.33-1.41v-.16h3.87a.87.87,0,0,0,.88-.87V31.47a.87.87,0,0,0-.88-.87H54.35V16a1.82,1.82,0,0,0-1.82-1.82H47.62A1.83,1.83,0,0,0,45.8,16v4.67H44.56V10.17A1.77,1.77,0,0,0,42.79,8.4h-3V3.33a1.52,1.52,0,0,0-1-1.44L33.21.08a1.47,1.47,0,0,0-1.36.21,1.52,1.52,0,0,0-.63,1.23V20.91H29.85V15a1.69,1.69,0,0,0-1.68-1.69H23A1.69,1.69,0,0,0,21.31,15v2.73H18.52V8.3a1.65,1.65,0,0,0-1.64-1.65H11.61A1.65,1.65,0,0,0,10,8.3v4.17H6.51A1.55,1.55,0,0,0,5,14V32.49A8.14,8.14,0,0,0,3.76,33.7h0l-.28.36L.54,38.13A2.84,2.84,0,0,0,0,39.79v2.53a1.92,1.92,0,0,0,1.92,1.92h7.5a.81.81,0,0,0,.45-.13,2.83,2.83,0,0,0,0,.29,3.15,3.15,0,0,0,.34,1.41H9.33a.87.87,0,0,0,0,1.74H32a.87.87,0,0,0,0-1.74H20.38a3.15,3.15,0,0,0,.33-1.41c0-.1,0-.21,0-.31a.83.83,0,0,0,.48.15H43.77c0,.05,0,.11,0,.17a3.15,3.15,0,0,0,.34,1.41H39.41a.87.87,0,1,0,0,1.74H54.85a.87.87,0,0,0,0-1.74ZM50.06,44.4a1.41,1.41,0,1,1,1.41,1.41A1.41,1.41,0,0,1,50.06,44.4ZM36.94,42.5l5.11-6.16a.59.59,0,0,1,.4-.15H57.62v1.16H43.06a.88.88,0,0,0-.69.33L38.61,42.5ZM47.54,16a.09.09,0,0,1,.08-.08h4.91a.08.08,0,0,1,.08.08V30.6h-3V22.24a1.57,1.57,0,0,0-1.57-1.57h-.55ZM42.85,30.6V22.41h5.06V30.6ZM33,1.83,38,3.49V13.73a.87.87,0,0,0,1.74,0V10.14h3a0,0,0,0,1,0,0v10.5h-.15a1.56,1.56,0,0,0-1.56,1.57V30.6H39.77V17.22a.87.87,0,0,0-1.74,0V30.6H34.74V22.44a1.53,1.53,0,0,0-1.53-1.53H33Zm0,20.82v8H29.85v-8ZM23.05,15h5.06V30.6H25.38V19.29a1.58,1.58,0,0,0-1.58-1.58h-.75ZM11.71,8.39h5.07V23.73a.87.87,0,1,0,1.74,0V19.46h5.12V30.6H18.52V27.22a.87.87,0,1,0-1.74,0V30.6H11.71Zm-5,5.83H10V30.6a8.45,8.45,0,0,0-3.26.79ZM4.86,35.12h7.06a.44.44,0,0,1,.43.44v2a.44.44,0,0,1-.43.44H2.78ZM11.6,44.4A1.41,1.41,0,1,1,13,45.81,1.41,1.41,0,0,1,11.6,44.4Zm4.55,0a1.41,1.41,0,1,1,1.41,1.41A1.41,1.41,0,0,1,16.15,44.4Zm4.59-2.87a.87.87,0,0,0-.66-.31H10.62a.88.88,0,0,0-.64.28L9,42.5H1.92a.18.18,0,0,1-.18-.18V39.75H11.92a2.19,2.19,0,0,0,2.18-2.18v-2a2.19,2.19,0,0,0-2.18-2.18H6.7a6.6,6.6,0,0,1,3.55-1H57.62v2.11H42.45a2.34,2.34,0,0,0-1.66.69l0,.06-6.06,7.3H21.58Zm22.55,1H40.82l2.66-3.41H57.62V42.5H54.71l-1.43-1.19a.87.87,0,0,0-.56-.2H45.28a.89.89,0,0,0-.56.2Zm2.22,1.9a1.41,1.41,0,1,1,1.4,1.41A1.41,1.41,0,0,1,45.51,44.4Z"/><path class="cls-1" d="M59.63,45.81H58.57a.87.87,0,0,0,0,1.74h1.06a.87.87,0,0,0,0-1.74Z"/></g></g></svg>