<svg xmlns="http://www.w3.org/2000/svg" viewBox="0 0 40.82 48.62"><defs><style>.cls-1{fill:#c7c0b8;}</style></defs><g id="Capa_2" data-name="Capa 2"><g id="Capa_1-2" data-name="Capa 1"><path class="cls-1" d="M19.15,27.29a.74.74,0,0,0,.75.74,25.57,25.57,0,0,0,5.3-.55.75.75,0,0,0,.57-.89.74.74,0,0,0-.89-.58,23.8,23.8,0,0,1-5,.53.74.74,0,0,0-.75.75Z"/><path class="cls-1" d="M19.9,17.94a20,20,0,0,1-3.37-.28.75.75,0,1,0-.26,1.48,22.13,22.13,0,0,0,3.63.3.75.75,0,0,0,0-1.5Z"/><path class="cls-1" d="M34.66,29.34a1.68,1.68,0,0,1-1.91.27.76.76,0,0,0-1.1.73.75.75,0,0,0,.8.69,20.86,20.86,0,0,0,2.62-.34.75.75,0,1,0-.29-1.47Z"/><path class="cls-1" d="M5.6,32.49c.19,0,.91.15,1.05.15a.75.75,0,0,0,.1-1.49L5.86,31a.75.75,0,0,0-.26,1.48Z"/><path class="cls-1" d="M38.22,48.62a.3.3,0,0,0,.26-.45,3,3,0,0,0-2.54-1.42h-.21a1.53,1.53,0,0,1-1.53-1.49l0-1.37a.75.75,0,1,0-1.49,0l0,1.38a3.08,3.08,0,0,0,.4,1.44H28.77a3.09,3.09,0,0,0,.41-1.44l.2-7.14a23.2,23.2,0,0,0,3.12,0l.07,2.22a.74.74,0,0,0,.77.73.73.73,0,0,0,.72-.77L34,38a24.88,24.88,0,0,0,5.54-1.34,2,2,0,0,0,1.22-2.33h0l-2.31-4.62,0,0a1.46,1.46,0,0,0,1.06-2.1l-2.44-4.87.48-.18a1.37,1.37,0,0,0,.74-1.88L31.74,7.55a.89.89,0,0,0-1.59,0l-3,5.91L20.71.51a.91.91,0,0,0-1.63,0l-3,6a.76.76,0,0,0,.34,1,.74.74,0,0,0,1-.34L19.9,2.22l7.19,14.39c-.46.18-.94.35-1.42.49a.75.75,0,0,0-.45,1l3.33,6.65a.11.11,0,0,1-.06.14c-.4.15-.81.3-1.23.43a.75.75,0,0,0-.43,1.05L30,32.76a.23.23,0,0,1-.12.32A27.75,27.75,0,0,1,20,34.94,27.58,27.58,0,0,1,9.91,33.08a.24.24,0,0,1-.12-.32L13,26.42a.75.75,0,0,0-.43-1.05c-.42-.13-.83-.28-1.23-.43a.1.1,0,0,1-.05-.14c3.53-7.08-2.62,5.22,3.32-6.65a.75.75,0,0,0-.45-1c-.48-.14-.95-.31-1.42-.49l3.13-6.26a.75.75,0,0,0-.33-1,.76.76,0,0,0-1,.34l-2.78,5.55L9.85,11.49a.88.88,0,0,0-1.57,0L2.37,23.32a1.29,1.29,0,0,0,.69,1.79l.36.14-2.15,4.3A1.41,1.41,0,0,0,2,31.49l.19.06-2,4.07A1.52,1.52,0,0,0,1,37.71c.36.14.72.26,1.08.38a.75.75,0,1,0,.47-1.42c-.34-.11-.67-.23-1-.36l2.43-4.85a.76.76,0,0,0-.44-1.05l-.82-.28,2.49-5a.74.74,0,0,0-.46-1.05c-.29-.09-.59-.19-.88-.3L9.06,13.28l3.13,6.26L9.9,24.13a1.6,1.6,0,0,0,.87,2.21l.46.17L8.45,32.09a1.71,1.71,0,0,0,.91,2.38,28.83,28.83,0,0,0,7.07,1.76v.16A21.1,21.1,0,0,1,5.84,37.47.75.75,0,1,0,5.62,39l.62.09-.19,6.44a1.3,1.3,0,0,1-1.3,1.27h-.9a3,3,0,0,0-2.54,1.42.3.3,0,0,0,.26.45ZM21.86,36.37l.24,8.54a3.52,3.52,0,0,0,.59,1.84h-2V42.43a.75.75,0,0,0-1.5,0v4.32h-2a3.52,3.52,0,0,0,.59-1.84c0-.93.2-7.3.24-8.54.41,0,.81.05,1.22.06v3a.75.75,0,0,0,1.5,0v-3c.62,0,1,0,1.21-.06Zm-5.67,8.5a1.94,1.94,0,0,1-1.93,1.88h-.89a1.3,1.3,0,0,1-1.3-1.27L11.89,39a22.34,22.34,0,0,0,4.49-1Zm-8.64.66.18-6.35a23.6,23.6,0,0,0,2.66,0l.19,6.35a2.79,2.79,0,0,0,.31,1.22H7.24A2.79,2.79,0,0,0,7.55,45.53Zm20.13-.27a1.53,1.53,0,0,1-1.52,1.49h-.63a1.94,1.94,0,0,1-1.93-1.88l-.22-7.82a25.22,25.22,0,0,0,4.51,1Zm11.7-10.11a23.37,23.37,0,0,1-14.3.82,28.53,28.53,0,0,0,5.36-1.5,1.72,1.72,0,0,0,.9-2.38l-2.78-5.58.47-.17a1.6,1.6,0,0,0,.86-2.21L27,18.26l.69-.25a1.48,1.48,0,0,0,.81-2L28,15.14l2.91-5.83,6,11.9c-.36.14-.72.26-1.08.37a.75.75,0,0,0-.46,1.05l2.81,5.62-1,.35a.75.75,0,0,0-.44,1L39.42,35a.08.08,0,0,1,0,.12Z"/></g></g></svg>