<svg xmlns="http://www.w3.org/2000/svg" viewBox="0 0 41.83 41.83"><defs><style>.cls-1{fill:#c7c0b8;stroke:#c7c0b8;stroke-miterlimit:10;stroke-width:0.3px;}</style></defs><g id="Capa_2" data-name="Capa 2"><g id="Capa_1-2" data-name="Capa 1"><path class="cls-1" d="M29.53,22.58a1.82,1.82,0,0,0-1.82,1.82v4.4a1.82,1.82,0,0,0,1.82,1.82h4.4a1.82,1.82,0,0,0,1.83-1.82V24.4a1.82,1.82,0,0,0-1.83-1.82Zm5,1.82v4.4a.61.61,0,0,1-.61.61h-4.4a.62.62,0,0,1-.61-.61V24.4a.62.62,0,0,1,.61-.61h4.4A.61.61,0,0,1,34.54,24.4ZM12.29,22.58H7.89A1.82,1.82,0,0,0,6.07,24.4v4.4a1.82,1.82,0,0,0,1.82,1.82h4.4a1.82,1.82,0,0,0,1.83-1.82V24.4A1.82,1.82,0,0,0,12.29,22.58Zm.61,6.22a.61.61,0,0,1-.61.61H7.89a.61.61,0,0,1-.6-.61V24.4a.61.61,0,0,1,.6-.61h4.4a.61.61,0,0,1,.61.61ZM40,37.45a4.55,4.55,0,0,0-1.79-.88V33.92a.61.61,0,0,0-.61-.61.61.61,0,0,0-.61.61v2.53a5.16,5.16,0,0,0-.87.1,8.82,8.82,0,0,1-1.52.21,7.66,7.66,0,0,1-3.3-.61,10.44,10.44,0,0,0-3.92-.77h0c-.3,0-.58,0-.84,0v-9.8a3,3,0,0,0-3-3H18.38a3,3,0,0,0-3,3v10a6.1,6.1,0,0,0-2.62-.48A8,8,0,0,0,9.36,36a6,6,0,0,1-2.64.68,5.87,5.87,0,0,1-1.18-.09,5.38,5.38,0,0,0-.69-.07V21a2.46,2.46,0,0,0,4.3-1.64v-2.8a1.27,1.27,0,0,1,.53-1,1.26,1.26,0,0,1,2,1v2.75a2.52,2.52,0,0,0,2.38,2.52h.09a2.46,2.46,0,0,0,2.47-2.47V11a.63.63,0,0,1,.26-.5l3.92-2.77a.21.21,0,0,1,.24,0l15.71,11.1.23.15V31.48a.61.61,0,0,0,.61.61.61.61,0,0,0,.61-.61V19.35a3.2,3.2,0,0,0,2.14-5.8L21.73.41a1.41,1.41,0,0,0-1.64,0L14.8,4.14a.61.61,0,0,0,.71,1L20.79,1.4a.21.21,0,0,1,.24,0l18.6,13.14a2,2,0,0,1,.83,1.63,2,2,0,0,1-1.06,1.76,1.85,1.85,0,0,1-2-.14L21.73,6.7a1.41,1.41,0,0,0-1.64,0L16.17,9.47A1.83,1.83,0,0,0,15.4,11v8.41a1.24,1.24,0,0,1-.39.9,1.2,1.2,0,0,1-.92.35,1.29,1.29,0,0,1-1.21-1.3V16.57a2.47,2.47,0,1,0-4.94,0v2.8a1.24,1.24,0,0,1-.39.9,1.21,1.21,0,0,1-.92.35,1.28,1.28,0,0,1-1.21-1.3v0l0-.29a1.12,1.12,0,0,0-.5-.85,1.08,1.08,0,0,0-1-.11,1.88,1.88,0,0,1-1.73-.24,1.94,1.94,0,0,1-.83-1.62,2,2,0,0,1,.83-1.63L13.76,6.37a.61.61,0,0,0-.7-1l-2.77,2V5.68a1.42,1.42,0,0,0,1.21-1.4V3.47a1.42,1.42,0,0,0-1.42-1.42H3.84A1.43,1.43,0,0,0,2.42,3.47v.81a1.42,1.42,0,0,0,1.22,1.4V12L1.5,13.55a3.19,3.19,0,0,0,2.14,5.79V36.62A4.54,4.54,0,0,0,.15,41v0a.61.61,0,0,0,.61.61.62.62,0,0,0,.61-.61v0a3.31,3.31,0,0,1,1.18-2.54,3.39,3.39,0,0,1,2.78-.73,7.38,7.38,0,0,0,1.41.11,7.31,7.31,0,0,0,3.12-.79,6.67,6.67,0,0,1,2.88-.74,5.16,5.16,0,0,1,2.91.79h0l.13.07a7.87,7.87,0,0,0,3.55,1.17,7.43,7.43,0,0,0,4.16-.85,8,8,0,0,1,3.83-.93,8.87,8.87,0,0,1,3.54.7,8.91,8.91,0,0,0,3.76.67,9.22,9.22,0,0,0,1.73-.23,3.4,3.4,0,0,1,2.86.66A3.3,3.3,0,0,1,40.46,41v.08a.61.61,0,0,0,.61.61.62.62,0,0,0,.61-.61V41A4.53,4.53,0,0,0,40,37.45ZM9.07,8.2l-4.22,3v-3H6.16a.61.61,0,1,0,0-1.21H4.85V5.7H9.07ZM3.64,3.47a.2.2,0,0,1,.2-.2h6.24a.2.2,0,0,1,.21.2v.81a.2.2,0,0,1-.21.2H3.84a.2.2,0,0,1-.2-.2ZM25.27,35.6a10.35,10.35,0,0,0-2.28.82,6.14,6.14,0,0,1-3.55.74,6.39,6.39,0,0,1-2.89-.92V25.62a1.83,1.83,0,0,1,1.83-1.83h5.07a1.82,1.82,0,0,1,1.82,1.83ZM17.71,13.73a3.21,3.21,0,1,0,3.2-3.2A3.2,3.2,0,0,0,17.71,13.73Zm5.19,0a2,2,0,1,1-2-2A2,2,0,0,1,22.9,13.73Zm.55,15a.6.6,0,0,0-.61.6v1.27a.61.61,0,0,0,1.22,0V29.28A.6.6,0,0,0,23.45,28.68Z"/></g></g></svg>