<svg xmlns="http://www.w3.org/2000/svg" viewBox="0 0 16.76 16.76"><defs><style>.cls-1{fill:#b97a28;}</style></defs><g id="Capa_2" data-name="Capa 2"><g id="Capa_1-2" data-name="Capa 1"><path class="cls-1" d="M8.38,5.31a3.08,3.08,0,1,0,3.08,3.07A3.06,3.06,0,0,0,8.38,5.31Z"/><path class="cls-1" d="M13,0H3.74A3.75,3.75,0,0,0,0,3.74V13a3.74,3.74,0,0,0,3.74,3.74H13A3.73,3.73,0,0,0,16.76,13V3.74A3.74,3.74,0,0,0,13,0ZM8.38,13.81a5.43,5.43,0,1,1,5.43-5.43A5.44,5.44,0,0,1,8.38,13.81Zm5.55-9.87a1.15,1.15,0,0,1,0-2.3,1.15,1.15,0,1,1,0,2.3Z"/></g></g></svg>