<svg xmlns="http://www.w3.org/2000/svg" viewBox="0 0 18.64 13.96"><defs><style>.cls-1{fill:#b97a28;}</style></defs><g id="Capa_2" data-name="Capa 2"><g id="Capa_1-2" data-name="Capa 1"><path class="cls-1" d="M10.88,9.08a2.83,2.83,0,0,1-1.56.47,2.78,2.78,0,0,1-1.56-.47L.12,4,0,3.9v8.34A1.72,1.72,0,0,0,1.72,14h15.2a1.72,1.72,0,0,0,1.72-1.72V3.9L18.51,4Z"/><path class="cls-1" d="M.73,3.08,8.37,8.17a1.7,1.7,0,0,0,1.9,0l7.64-5.09a1.65,1.65,0,0,0,.73-1.36A1.72,1.72,0,0,0,16.92,0H1.72A1.72,1.72,0,0,0,0,1.72,1.63,1.63,0,0,0,.73,3.08Z"/></g></g></svg>