<svg xmlns="http://www.w3.org/2000/svg" viewBox="0 0 40.55 40.57"><defs><style>.cls-1{fill:#c7c0b8;}</style></defs><g id="Capa_2" data-name="Capa 2"><g id="Capa_1-2" data-name="Capa 1"><path class="cls-1" d="M11.86,40.57H28.69a10.7,10.7,0,0,0,9.61-5.94,21.41,21.41,0,0,0,0-19.14,10.7,10.7,0,0,0-9.61-5.94H21.47V3.45L30,2.4a1.19,1.19,0,0,0,1-1.32v0a1.17,1.17,0,0,0-1.29-1h0L10.59,2.4a1.19,1.19,0,1,0,.14,2.38h.15l8.2-1v5.8H11.86a10.68,10.68,0,0,0-9.6,5.94,21.41,21.41,0,0,0,0,19.14A10.68,10.68,0,0,0,11.86,40.57Zm-7.47-24a8.31,8.31,0,0,1,7.47-4.62H28.69a8.29,8.29,0,0,1,7.47,4.62,19,19,0,0,1,1.94,7.31H28.63v-6a3.58,3.58,0,0,0-3.58-3.57H15.51a3.57,3.57,0,0,0-3.58,3.57v6H2.45A19.36,19.36,0,0,1,4.39,16.56ZM26.24,17.9V32.22a1.19,1.19,0,0,1-1.19,1.19H21.47V16.71h3.58A1.19,1.19,0,0,1,26.24,17.9Zm-7.16-1.19v16.7H15.51a1.19,1.19,0,0,1-1.2-1.19V17.9a1.2,1.2,0,0,1,1.2-1.19Zm-7.15,9.54v6a3.58,3.58,0,0,0,3.58,3.58h9.54a3.59,3.59,0,0,0,3.58-3.58v-6H38.1a19,19,0,0,1-1.94,7.32,8.3,8.3,0,0,1-7.47,4.61H11.86a8.31,8.31,0,0,1-7.47-4.61,19.41,19.41,0,0,1-1.94-7.32Z"/></g></g></svg>