<svg xmlns="http://www.w3.org/2000/svg" viewBox="0 0 90.38 77.57"><defs><style>.cls-1{fill:#c7c0b8;}.cls-2{fill:none;}</style></defs><g id="Capa_2" data-name="Capa 2"><g id="Capa_1-2" data-name="Capa 1"><path class="cls-1" d="M33.45,63.82h-1V55.94h-3V55h6.9v.92H33.45Z"/><path class="cls-1" d="M42.62,61.88a3.37,3.37,0,0,1-1.79,1.82,3.36,3.36,0,0,1-1.35.27,3.31,3.31,0,0,1-2.41-1,3.23,3.23,0,0,1-.71-1.07,3.56,3.56,0,0,1,0-2.62,3.21,3.21,0,0,1,.71-1.09,3.31,3.31,0,0,1,2.43-1,3.32,3.32,0,0,1,1.35.27,3.25,3.25,0,0,1,1.78,1.81,3.34,3.34,0,0,1,.25,1.3A3.31,3.31,0,0,1,42.62,61.88Zm-.91-2.29a2.42,2.42,0,0,0-.51-.81A2.38,2.38,0,0,0,39.48,58a2.37,2.37,0,0,0-1,.19,2.25,2.25,0,0,0-.75.54,2.79,2.79,0,0,0-.48.8,2.72,2.72,0,0,0-.18,1,2.53,2.53,0,0,0,.19,1,2.36,2.36,0,0,0,.5.8,2.19,2.19,0,0,0,.76.54,2.31,2.31,0,0,0,1,.2,2.37,2.37,0,0,0,1-.2,2.22,2.22,0,0,0,.75-.53,2.29,2.29,0,0,0,.49-.79,2.81,2.81,0,0,0,0-2Z"/><path class="cls-1" d="M49.24,57.32h.95v6.5h-.95V62.69a3.16,3.16,0,0,1-.85.9A2.41,2.41,0,0,1,47,64,2.81,2.81,0,0,1,46,63.77a2.25,2.25,0,0,1-1.27-1.36,3,3,0,0,1-.17-1.06v-4h1v3.8A2.08,2.08,0,0,0,46,62.55a1.68,1.68,0,0,0,1.33.53,2,2,0,0,0,.78-.15,1.69,1.69,0,0,0,.61-.41,2.06,2.06,0,0,0,.41-.65,2.23,2.23,0,0,0,.15-.83Z"/><path class="cls-1" d="M53.34,63.82h-1v-6.5h1V59a2.9,2.9,0,0,1,.44-.74,2.8,2.8,0,0,1,.6-.59,2.7,2.7,0,0,1,.74-.37,2.73,2.73,0,0,1,.87-.11v1h-.08a2.62,2.62,0,0,0-1,.19,2.21,2.21,0,0,0-.82.57,2.67,2.67,0,0,0-.55.93,3.64,3.64,0,0,0-.2,1.29Z"/><path class="cls-1" d="M61.73,62.82a1.81,1.81,0,0,1-.49.61,2.06,2.06,0,0,1-.72.38,3.05,3.05,0,0,1-.92.13,4.16,4.16,0,0,1-1.41-.25,4.57,4.57,0,0,1-1.27-.7l.49-.69a4,4,0,0,0,1.1.61,3.08,3.08,0,0,0,1.14.22,1.62,1.62,0,0,0,1-.28A.88.88,0,0,0,61,62.1v0a.69.69,0,0,0-.13-.41,1.23,1.23,0,0,0-.36-.31,2.48,2.48,0,0,0-.52-.23l-.61-.19-.76-.25a3.15,3.15,0,0,1-.69-.33,1.62,1.62,0,0,1-.51-.5,1.36,1.36,0,0,1-.19-.76v0a1.73,1.73,0,0,1,.16-.76,1.66,1.66,0,0,1,.46-.59,2,2,0,0,1,.71-.38,2.75,2.75,0,0,1,.88-.13,4,4,0,0,1,1.22.19,5,5,0,0,1,1.12.52l-.44.73a4.34,4.34,0,0,0-1-.45,2.84,2.84,0,0,0-1-.17,1.44,1.44,0,0,0-.92.27.81.81,0,0,0-.34.67v0a.63.63,0,0,0,.14.4,1.11,1.11,0,0,0,.37.29,2.91,2.91,0,0,0,.53.23l.63.2.75.25a3.54,3.54,0,0,1,.67.35,1.82,1.82,0,0,1,.48.52,1.34,1.34,0,0,1,.19.74v0A1.68,1.68,0,0,1,61.73,62.82Z"/><path class="cls-1" d="M9.65,75.26a4.35,4.35,0,0,1-.8.48,4.81,4.81,0,0,1-2,.43,4.42,4.42,0,0,1-1.76-.35,4.29,4.29,0,0,1-1.39-1,4.21,4.21,0,0,1-.93-1.43,4.83,4.83,0,0,1-.33-1.79,4.72,4.72,0,0,1,.33-1.77,4.36,4.36,0,0,1,4.12-2.79,5.84,5.84,0,0,1,1.08.1,4,4,0,0,1,.9.29,4.12,4.12,0,0,1,.77.43c.23.18.46.37.68.58l-.68.72a5.47,5.47,0,0,0-1.21-.86A3.3,3.3,0,0,0,6.86,68a3.39,3.39,0,0,0-1.35.27A3.61,3.61,0,0,0,4.43,69a3.65,3.65,0,0,0-.71,1.15,4.06,4.06,0,0,0,0,2.86,3.69,3.69,0,0,0,.71,1.16A3.61,3.61,0,0,0,5.51,75a3.23,3.23,0,0,0,1.35.28,3.39,3.39,0,0,0,1.56-.33A5.38,5.38,0,0,0,9.7,74l.66.64A7,7,0,0,1,9.65,75.26Z"/><path class="cls-1" d="M16.54,69.52h.95V76h-.95V74.89a3,3,0,0,1-.86.89,2.31,2.31,0,0,1-1.37.38A2.89,2.89,0,0,1,13.26,76a2.23,2.23,0,0,1-.77-.54,2.19,2.19,0,0,1-.49-.82,3,3,0,0,1-.17-1.06v-4h1v3.8a2.09,2.09,0,0,0,.47,1.43,1.68,1.68,0,0,0,1.33.53,2,2,0,0,0,.77-.15,1.64,1.64,0,0,0,.62-.41,2.06,2.06,0,0,0,.41-.65,2.23,2.23,0,0,0,.15-.83Z"/><path class="cls-1" d="M23.94,75a1.81,1.81,0,0,1-.49.61,2.06,2.06,0,0,1-.72.38,3.05,3.05,0,0,1-.92.13,3.94,3.94,0,0,1-1.41-.26,4.31,4.31,0,0,1-1.27-.69l.49-.69a4.26,4.26,0,0,0,1.1.61,3.08,3.08,0,0,0,1.14.22,1.62,1.62,0,0,0,1-.28.89.89,0,0,0,.38-.75v0a.69.69,0,0,0-.13-.41,1.23,1.23,0,0,0-.36-.31,2.48,2.48,0,0,0-.52-.23l-.61-.19-.76-.25a3.15,3.15,0,0,1-.69-.33,1.62,1.62,0,0,1-.51-.5,1.38,1.38,0,0,1-.19-.76v0a1.73,1.73,0,0,1,.16-.76,1.66,1.66,0,0,1,.46-.59,2,2,0,0,1,.71-.38,2.75,2.75,0,0,1,.88-.13,4,4,0,0,1,1.22.19,5,5,0,0,1,1.12.52l-.44.73a4.9,4.9,0,0,0-.95-.46,3.1,3.1,0,0,0-1-.17,1.44,1.44,0,0,0-.92.28.8.8,0,0,0-.34.67v0a.65.65,0,0,0,.14.4,1.11,1.11,0,0,0,.37.29,2.91,2.91,0,0,0,.53.23l.63.2.75.25a3,3,0,0,1,.67.35,1.82,1.82,0,0,1,.48.52,1.34,1.34,0,0,1,.19.74v0A1.68,1.68,0,0,1,23.94,75Z"/><path class="cls-1" d="M27.1,74.17a1,1,0,0,0,.3.84,1.27,1.27,0,0,0,.8.24,2.42,2.42,0,0,0,.47,0,1.86,1.86,0,0,0,.47-.18v.83a2.17,2.17,0,0,1-.53.21,2.56,2.56,0,0,1-.64.07,2.48,2.48,0,0,1-.73-.1,1.5,1.5,0,0,1-.58-.32,1.56,1.56,0,0,1-.39-.57,2.39,2.39,0,0,1-.13-.84V70.38h-.91v-.86h.91v-2h1v2h2.06v.86H27.1Z"/><path class="cls-1" d="M36.8,74.08a3.62,3.62,0,0,1-.71,1.08A3.52,3.52,0,0,1,35,75.9a3.44,3.44,0,0,1-1.36.27,3.32,3.32,0,0,1-1.35-.27,3.45,3.45,0,0,1-1.06-.73,3.36,3.36,0,0,1-1-2.38,3.48,3.48,0,0,1,.25-1.32,3.43,3.43,0,0,1,.71-1.08,3.36,3.36,0,0,1,1.07-.74,3.4,3.4,0,0,1,1.36-.27,3.32,3.32,0,0,1,1.35.27,3.25,3.25,0,0,1,1.78,1.81,3.34,3.34,0,0,1,.25,1.3A3.48,3.48,0,0,1,36.8,74.08Zm-.92-2.29a2.42,2.42,0,0,0-.51-.81,2.33,2.33,0,0,0-.77-.54,2.16,2.16,0,0,0-1-.2,2.37,2.37,0,0,0-1,.19,2.25,2.25,0,0,0-.75.54,2.79,2.79,0,0,0-.48.8,2.72,2.72,0,0,0-.18,1,2.53,2.53,0,0,0,.19,1,2.36,2.36,0,0,0,.5.8,2.62,2.62,0,0,0,.76.54,2.31,2.31,0,0,0,1,.2,2.34,2.34,0,0,0,1-.2,2.26,2.26,0,0,0,.76-.53,2.43,2.43,0,0,0,.48-.79,2.81,2.81,0,0,0,0-2Z"/><path class="cls-1" d="M44.35,70.17a2.8,2.8,0,0,1,.49-.41,2.5,2.5,0,0,1,.62-.28,3.08,3.08,0,0,1,.78-.1,2.31,2.31,0,0,1,1.77.7A2.72,2.72,0,0,1,48.65,72v4h-1v-3.8a2.17,2.17,0,0,0-.44-1.45A1.56,1.56,0,0,0,46,70.26a2,2,0,0,0-.69.13,1.61,1.61,0,0,0-.57.39,1.81,1.81,0,0,0-.39.64,2.26,2.26,0,0,0-.15.85V76h-1V72.2a2.1,2.1,0,0,0-.45-1.43,1.53,1.53,0,0,0-1.22-.51,1.66,1.66,0,0,0-1.29.58,2.2,2.2,0,0,0-.39.65,2.35,2.35,0,0,0-.13.82V76h-1v-6.5h1v1.09c.11-.15.23-.31.36-.46a2.41,2.41,0,0,1,.44-.4,2.5,2.5,0,0,1,.57-.27,2.61,2.61,0,0,1,.72-.1,2.23,2.23,0,0,1,1.31.37,2.32,2.32,0,0,1,.78.93A3.9,3.9,0,0,1,44.35,70.17Z"/><path class="cls-1" d="M50.77,68.1V67h1.11V68.1ZM50.83,76v-6.5h1V76Z"/><path class="cls-1" d="M53.82,70.34v-.82H59.3v.62L55,75.2H59.3V76H53.67V75.4L58,70.34Z"/><path class="cls-1" d="M62.34,70.42a6.08,6.08,0,0,0-.93.34L61.12,70a6.56,6.56,0,0,1,1.1-.39,4.86,4.86,0,0,1,1.27-.15,2.89,2.89,0,0,1,2,.66,2.52,2.52,0,0,1,.72,2v4h-.93V75a3.36,3.36,0,0,1-.91.78,2.84,2.84,0,0,1-1.44.34,3.23,3.23,0,0,1-.88-.13,2.36,2.36,0,0,1-.78-.38,2.14,2.14,0,0,1-.56-.64,1.8,1.8,0,0,1-.2-.89,1.91,1.91,0,0,1,.2-.91,1.72,1.72,0,0,1,.57-.66,2.63,2.63,0,0,1,.88-.4A4,4,0,0,1,63.32,72a7.09,7.09,0,0,1,1.1.07,6.55,6.55,0,0,1,.9.21v-.23a1.68,1.68,0,0,0-.51-1.33,2.12,2.12,0,0,0-1.42-.44A3.77,3.77,0,0,0,62.34,70.42ZM62,73.09a1.15,1.15,0,0,0-.49,1,1.07,1.07,0,0,0,.13.55A1.29,1.29,0,0,0,62,75a1.5,1.5,0,0,0,.52.26,2.06,2.06,0,0,0,.62.09,2.84,2.84,0,0,0,.84-.13,2.17,2.17,0,0,0,.69-.37,1.61,1.61,0,0,0,.46-.55,1.41,1.41,0,0,0,.17-.71V73c-.24-.07-.52-.13-.83-.19a6.69,6.69,0,0,0-1.07-.09A2.31,2.31,0,0,0,62,73.09Z"/><path class="cls-1" d="M73.52,76V74.71a4.61,4.61,0,0,1-.44.55,3.51,3.51,0,0,1-.55.47,2.42,2.42,0,0,1-.67.31,2.66,2.66,0,0,1-.82.12,3,3,0,0,1-1.15-.23,3.07,3.07,0,0,1-1-.66,3.16,3.16,0,0,1-.7-1.06,3.95,3.95,0,0,1,0-2.87,3.16,3.16,0,0,1,.7-1.06,3.07,3.07,0,0,1,1-.66A2.86,2.86,0,0,1,71,69.38a2.78,2.78,0,0,1,.83.12,2.4,2.4,0,0,1,.67.3,2.37,2.37,0,0,1,.55.44,4.09,4.09,0,0,1,.43.52V66.85h1V76Zm-.15-4.28a2.44,2.44,0,0,0-.53-.79,2.38,2.38,0,0,0-.75-.51,2.23,2.23,0,0,0-.88-.18,2.39,2.39,0,0,0-.89.17,2,2,0,0,0-.72.49,2.16,2.16,0,0,0-.49.79,2.89,2.89,0,0,0-.18,1.05,2.84,2.84,0,0,0,.18,1,2.52,2.52,0,0,0,.49.79,2.15,2.15,0,0,0,.73.51,2.2,2.2,0,0,0,.88.18,2.08,2.08,0,0,0,.88-.19,2.52,2.52,0,0,0,.75-.5,2.38,2.38,0,0,0,.53-.8,2.86,2.86,0,0,0,0-2.05Z"/><path class="cls-1" d="M82.76,74.08A3.37,3.37,0,0,1,81,75.9a3.36,3.36,0,0,1-1.35.27,3.32,3.32,0,0,1-1.35-.27,3.63,3.63,0,0,1-1.07-.73,3.3,3.3,0,0,1-.7-1.08,3.34,3.34,0,0,1-.25-1.3,3.48,3.48,0,0,1,.25-1.32,3.31,3.31,0,0,1,1.78-1.82,3.37,3.37,0,0,1,1.36-.27,3.32,3.32,0,0,1,1.35.27,3.25,3.25,0,0,1,1.78,1.81,3.34,3.34,0,0,1,.25,1.3A3.31,3.31,0,0,1,82.76,74.08Zm-.91-2.29a2.4,2.4,0,0,0-1.28-1.35,2.16,2.16,0,0,0-.95-.2,2.37,2.37,0,0,0-1,.19,2.25,2.25,0,0,0-.75.54,2.79,2.79,0,0,0-.48.8,2.72,2.72,0,0,0-.18,1,2.53,2.53,0,0,0,.19,1,2.36,2.36,0,0,0,.5.8,2.49,2.49,0,0,0,.76.54,2.31,2.31,0,0,0,1,.2,2.37,2.37,0,0,0,1-.2,2.22,2.22,0,0,0,.75-.53,2.29,2.29,0,0,0,.49-.79,2.81,2.81,0,0,0,0-2Z"/><path class="cls-1" d="M89.05,75a2.09,2.09,0,0,1-.49.61,2.2,2.2,0,0,1-.73.38,3,3,0,0,1-.91.13,4,4,0,0,1-1.42-.26,4.44,4.44,0,0,1-1.27-.69l.49-.69a4.43,4.43,0,0,0,1.1.61,3.09,3.09,0,0,0,1.15.22,1.61,1.61,0,0,0,1-.28.87.87,0,0,0,.38-.75v0a.63.63,0,0,0-.13-.41,1.23,1.23,0,0,0-.36-.31,2.27,2.27,0,0,0-.52-.23l-.61-.19-.76-.25a3.39,3.39,0,0,1-.69-.33,1.59,1.59,0,0,1-.5-.5,1.39,1.39,0,0,1-.2-.76v0a1.73,1.73,0,0,1,.17-.76,1.63,1.63,0,0,1,.45-.59,2.11,2.11,0,0,1,.71-.38,2.8,2.8,0,0,1,.88-.13A4,4,0,0,1,88,69.6a4.8,4.8,0,0,1,1.12.52l-.44.73a4.9,4.9,0,0,0-1-.46,3.05,3.05,0,0,0-1-.17,1.44,1.44,0,0,0-.92.28.82.82,0,0,0-.34.67v0a.65.65,0,0,0,.14.4,1.22,1.22,0,0,0,.37.29,3,3,0,0,0,.54.23l.62.2.75.25a2.83,2.83,0,0,1,.67.35,2,2,0,0,1,.49.52,1.42,1.42,0,0,1,.18.74v0A1.8,1.8,0,0,1,89.05,75Z"/><path class="cls-1" d="M34.25,15.16A10.45,10.45,0,0,0,23.81,25.6c0,3.58,1.7,7.42,5.05,11.42.5.6,1,1.15,1.47,1.65-2.16.59-3.46,1.66-3.46,2.9,0,2.19,3.8,3.37,7.38,3.37s7.38-1.18,7.38-3.37c0-1.24-1.3-2.31-3.46-2.9a33.55,33.55,0,0,0,2.67-3.18.62.62,0,0,0-1-.74,33.38,33.38,0,0,1-3.23,3.73.59.59,0,0,0-.27.27c-.9.88-1.66,1.54-2.09,1.9-.43-.36-1.17-1-2.06-1.88a.64.64,0,0,0-.32-.31c-2.82-2.85-6.81-7.76-6.81-12.86a9.19,9.19,0,1,1,18.38,0,14.09,14.09,0,0,1-2.24,7.11.62.62,0,0,0,1.07.63,15.2,15.2,0,0,0,2.42-7.74A10.45,10.45,0,0,0,34.25,15.16ZM33.87,42a.65.65,0,0,0,.38.13.67.67,0,0,0,.38-.13,32.13,32.13,0,0,0,2.51-2.24c2.11.43,3.24,1.26,3.24,1.86,0,.44-.61,1-1.59,1.36a12.46,12.46,0,0,1-4.54.76c-3.74,0-6.13-1.26-6.13-2.12,0-.6,1.13-1.43,3.24-1.86A31.41,31.41,0,0,0,33.87,42Z"/><path class="cls-1" d="M34.25,45.11c-3.66,0-7.55-1.24-7.55-3.54,0-1.27,1.2-2.35,3.32-3-.44-.48-.88-1-1.29-1.46-3.38-4-5.09-7.91-5.09-11.53a10.61,10.61,0,0,1,21.22,0,15.44,15.44,0,0,1-2.44,7.83.8.8,0,1,1-1.37-.81,13.83,13.83,0,0,0,2.22-7,9,9,0,0,0-18,0c0,4.89,3.66,9.61,6.74,12.72a.76.76,0,0,1,.36.35c.82.81,1.52,1.42,1.92,1.76.4-.34,1.11-1,2-1.79a.81.81,0,0,1,.31-.3,33.06,33.06,0,0,0,3.19-3.69.79.79,0,0,1,1.28.94,33.66,33.66,0,0,1-2.5,3c2.11.63,3.32,1.71,3.32,3C41.8,43.87,37.91,45.11,34.25,45.11Zm0-29.78A10.29,10.29,0,0,0,24,25.6c0,3.53,1.68,7.34,5,11.32.47.55,1,1.1,1.47,1.64l.19.2-.27.08c-2.09.57-3.34,1.59-3.34,2.73,0,2,3.66,3.2,7.21,3.2s7.21-1.12,7.21-3.2c0-1.14-1.25-2.16-3.34-2.73l-.27-.08.19-.2a34.54,34.54,0,0,0,2.67-3.17.46.46,0,0,0-.74-.54,31.36,31.36,0,0,1-3.24,3.74l0,0a.41.41,0,0,0-.2.19l0,0c-.94.92-1.72,1.59-2.1,1.91l-.11.09-.11-.09c-.38-.32-1.15-1-2.07-1.89l0,0a.43.43,0,0,0-.23-.23l-.05,0c-3.13-3.15-6.86-8-6.86-13a9.36,9.36,0,0,1,18.72,0,14.21,14.21,0,0,1-2.26,7.19.46.46,0,0,0,.15.63.48.48,0,0,0,.63-.16,15.11,15.11,0,0,0,2.39-7.66A10.29,10.29,0,0,0,34.25,15.33Zm0,28.53c-3.61,0-6.3-1.21-6.3-2.29,0-.79,1.39-1.62,3.37-2l.09,0,.07.06A32.53,32.53,0,0,0,34,41.81h0a.47.47,0,0,0,.56,0A31,31,0,0,0,37,39.59l.07-.06.09,0c2,.4,3.37,1.23,3.37,2,0,.52-.63,1.09-1.7,1.52A12.57,12.57,0,0,1,34.25,43.86Zm-2.95-4c-2.08.44-3,1.23-3,1.67,0,.66,2.1,2,6,2a12.38,12.38,0,0,0,4.48-.75c1-.42,1.48-.91,1.48-1.21s-.93-1.23-3-1.67c-1.29,1.25-2.27,2-2.46,2.18a.81.81,0,0,1-1,0S32.69,41.25,31.3,39.9Z"/><path class="cls-1" d="M34.25,21.06a4.51,4.51,0,0,0-2.72.9.63.63,0,0,0-.12.88.62.62,0,0,0,.87.12A3.29,3.29,0,1,1,31,25.6a3.13,3.13,0,0,1,.13-.91.63.63,0,0,0-.43-.77.62.62,0,0,0-.77.43,4.34,4.34,0,0,0-.18,1.25,4.54,4.54,0,1,0,4.54-4.54Z"/><path class="cls-1" d="M34.25,30.31a4.72,4.72,0,0,1-4.53-6,.79.79,0,0,1,1-.54.75.75,0,0,1,.48.37.81.81,0,0,1,.07.61,3.12,3.12,0,1,0,3-2.26,3.07,3.07,0,0,0-1.87.62.8.8,0,0,1-.58.15.79.79,0,0,1-.53-.31.8.8,0,0,1,.16-1.11,4.71,4.71,0,1,1,2.82,8.48Zm-3.76-6.25a.46.46,0,0,0-.44.33,4.53,4.53,0,0,0-.17,1.21,4.37,4.37,0,1,0,4.37-4.37,4.29,4.29,0,0,0-2.61.87.45.45,0,0,0-.1.64.48.48,0,0,0,.64.09,3.46,3.46,0,1,1-1.39,2.77,3.52,3.52,0,0,1,.13-1,.41.41,0,0,0,0-.34.46.46,0,0,0-.27-.22Z"/><path class="cls-1" d="M62.82,20.5c.31-.34.64-.71,1-1.1,2.6-3.1,3.92-6.09,3.92-8.87A8.17,8.17,0,0,0,52,7.35a.63.63,0,1,0,1.15.49,6.92,6.92,0,0,1,13.3,2.69c0,5.16-5.42,10.1-6.92,11.37-.33-.27-.85-.73-1.47-1.33a.66.66,0,0,0-.27-.28c-2.16-2.17-5.18-5.9-5.18-9.76a.63.63,0,1,0-1.25,0c0,2.78,1.32,5.77,3.92,8.87.33.39.65.76,1,1.1-1.61.48-2.54,1.31-2.54,2.3,0,.84.68,1.57,1.91,2.07a11.74,11.74,0,0,0,7.82,0c1.23-.5,1.9-1.23,1.9-2.07C65.35,21.81,64.42,21,62.82,20.5Zm-3.28,3.79c-3,0-4.57-1-4.57-1.49,0-.33.73-.93,2.3-1.27a23.33,23.33,0,0,0,1.89,1.68.65.65,0,0,0,.38.13.67.67,0,0,0,.38-.13s.83-.65,1.89-1.68a5.69,5.69,0,0,1,1.72.63c.36.22.58.46.58.64C64.11,23.31,62.49,24.29,59.54,24.29Z"/><path class="cls-1" d="M59.54,25.71a10.77,10.77,0,0,1-4-.68c-1.3-.53-2-1.32-2-2.23s.85-1.86,2.4-2.38c-.27-.3-.54-.61-.79-.91-2.63-3.14-4-6.16-4-9a.8.8,0,0,1,1.59,0c0,3.69,2.77,7.27,5.11,9.62a.86.86,0,0,1,.31.32c.54.52,1,.94,1.33,1.21,1.72-1.48,6.75-6.21,6.75-11.15a6.75,6.75,0,0,0-13-2.63.8.8,0,0,1-1,.42.79.79,0,0,1-.42-1,8.34,8.34,0,0,1,16,3.25c0,2.82-1.34,5.84-4,9-.25.3-.52.61-.8.91,1.53.52,2.4,1.38,2.4,2.38s-.71,1.7-2,2.23A10.77,10.77,0,0,1,59.54,25.71ZM52,10.07a.46.46,0,0,0-.45.46c0,2.74,1.3,5.69,3.88,8.76.3.37.63.73,1,1.1l.19.2-.26.07c-1.54.47-2.42,1.24-2.42,2.14s.64,1.44,1.8,1.92a11.7,11.7,0,0,0,7.69,0c1.16-.48,1.81-1.16,1.81-1.92s-.89-1.67-2.42-2.14l-.26-.07.18-.2c.34-.37.67-.73,1-1.1,2.57-3.07,3.88-6,3.88-8.76A8,8,0,0,0,52.17,7.42a.45.45,0,0,0,.24.59.46.46,0,0,0,.6-.24,7.09,7.09,0,0,1,13.62,2.76c0,5.19-5.35,10.12-7,11.5l-.11.1-.11-.1c-.33-.28-.86-.74-1.47-1.34l0-.05a.48.48,0,0,0-.2-.2l0,0c-2.39-2.4-5.23-6.06-5.23-9.88A.47.47,0,0,0,52,10.07Zm7.55,14.39c-2.94,0-4.74-1-4.74-1.66,0-.46.84-1.09,2.43-1.43l.09,0,.07.06a20.48,20.48,0,0,0,1.87,1.66.45.45,0,0,0,.56,0,24.33,24.33,0,0,0,1.87-1.66l.06-.06.09,0a5.9,5.9,0,0,1,1.78.64c.24.15.66.45.66.79C64.28,23.49,62.47,24.46,59.54,24.46Zm-2.32-2.74c-1.57.35-2.08.92-2.08,1.08s1.37,1.32,4.4,1.32,4.4-1,4.4-1.32c0-.08-.13-.28-.5-.5a5.41,5.41,0,0,0-1.58-.58c-1.06,1-1.83,1.61-1.84,1.62a.83.83,0,0,1-1,0A23.9,23.9,0,0,1,57.22,21.72Z"/><path class="cls-1" d="M59.54,6.9a3.63,3.63,0,1,0,3.63,3.63A3.64,3.64,0,0,0,59.54,6.9Zm0,6a2.39,2.39,0,1,1,2.38-2.38A2.39,2.39,0,0,1,59.54,12.91Z"/><path class="cls-1" d="M59.54,14.33a3.8,3.8,0,1,1,3.8-3.8A3.8,3.8,0,0,1,59.54,14.33Zm0-7.27A3.47,3.47,0,1,0,63,10.53,3.48,3.48,0,0,0,59.54,7.06Zm0,6a2.55,2.55,0,1,1,2.55-2.55A2.56,2.56,0,0,1,59.54,13.08Zm0-4.77a2.22,2.22,0,1,0,2.21,2.22A2.23,2.23,0,0,0,59.54,8.31Z"/><path class="cls-1" d="M51.44,22.17h-.29a4.44,4.44,0,0,0-.62,0,.61.61,0,0,0-.53.7.62.62,0,0,0,.61.54h.09a3.4,3.4,0,0,1,.45,0h.29a.63.63,0,0,0,0-1.25Z"/><path class="cls-1" d="M50.61,23.63a.8.8,0,0,1-.78-.69.82.82,0,0,1,.15-.59.8.8,0,0,1,.53-.3,4.58,4.58,0,0,1,.64,0h.29a.79.79,0,0,1,0,1.58h-.29a3.11,3.11,0,0,0-.43,0Zm.54-1.29a5.65,5.65,0,0,0-.59,0,.46.46,0,0,0-.4.51.47.47,0,0,0,.51.4,2.58,2.58,0,0,1,.48,0h.29a.46.46,0,0,0,0-.92Z"/><path class="cls-1" d="M49.37,40.91h-.82a.63.63,0,1,0,0,1.25h.83a.63.63,0,0,0,0-1.25Z"/><path class="cls-1" d="M48.55,42.33a.79.79,0,0,1-.79-.79A.75.75,0,0,1,48,41a.78.78,0,0,1,.56-.24h.82a.8.8,0,1,1,0,1.59Zm.82-1.25h-.82a.48.48,0,0,0-.46.46.46.46,0,0,0,.46.45h.83a.46.46,0,1,0,0-.91Z"/><path class="cls-1" d="M52.18,30.26h-.83a.63.63,0,0,0,0,1.25h.83a.63.63,0,0,0,0-1.25Z"/><path class="cls-1" d="M52.18,31.68h-.83a.8.8,0,0,1,0-1.59h.83a.8.8,0,0,1,0,1.59Zm-.83-1.25a.46.46,0,0,0-.45.46.45.45,0,0,0,.45.45h.83a.45.45,0,0,0,.45-.45.46.46,0,0,0-.45-.46Z"/><path class="cls-1" d="M48.87,23.45a.62.62,0,0,0-.88,0,5.25,5.25,0,0,0-.63.71.63.63,0,0,0,.51,1,.61.61,0,0,0,.5-.26,3.3,3.3,0,0,1,.47-.52A.63.63,0,0,0,48.87,23.45Z"/><path class="cls-1" d="M47.87,25.28a.8.8,0,0,1-.47-.15A.81.81,0,0,1,47.22,24a5,5,0,0,1,.65-.73.79.79,0,0,1,1.12,0h0a.8.8,0,0,1,.2.57.73.73,0,0,1-.25.55,4.14,4.14,0,0,0-.44.5A.79.79,0,0,1,47.87,25.28Zm.54-1.86a.47.47,0,0,0-.31.12,3.9,3.9,0,0,0-.6.68.46.46,0,0,0,.1.64.47.47,0,0,0,.64-.11,3.5,3.5,0,0,1,.48-.54.5.5,0,0,0,.15-.32.45.45,0,0,0-.46-.47Z"/><path class="cls-1" d="M52.67,40.89h-.82a.63.63,0,0,0-.63.62.63.63,0,0,0,.63.63h.83a.63.63,0,1,0,0-1.25Z"/><path class="cls-1" d="M51.85,42.32a.79.79,0,0,1-.79-.8.78.78,0,0,1,.22-.56.79.79,0,0,1,.56-.23h.83a.81.81,0,0,1,.8.79.79.79,0,0,1-.79.8Zm.82-1.26h-.82a.46.46,0,0,0-.46.45.47.47,0,0,0,.46.46h.82a.49.49,0,0,0,.33-.13.48.48,0,0,0,.13-.32.47.47,0,0,0-.46-.46Z"/><path class="cls-1" d="M46.08,40.92h-.83a.61.61,0,0,0-.62.63.62.62,0,0,0,.62.62h.83a.63.63,0,0,0,0-1.25Z"/><path class="cls-1" d="M45.25,42.35A.8.8,0,0,1,44.69,41a.77.77,0,0,1,.56-.23h.82a.79.79,0,1,1,0,1.58Zm.82-1.26h-.82a.46.46,0,0,0-.32.13.45.45,0,0,0-.14.32.47.47,0,0,0,.46.46h.83a.45.45,0,0,0,.45-.45.47.47,0,0,0-.46-.46Z"/><path class="cls-1" d="M49.33,29.74a4.53,4.53,0,0,1-.55-.43.62.62,0,0,0-.86.9,4.18,4.18,0,0,0,.75.58.56.56,0,0,0,.33.1.62.62,0,0,0,.53-.29A.63.63,0,0,0,49.33,29.74Z"/><path class="cls-1" d="M49,31.06a.82.82,0,0,1-.43-.12,5.57,5.57,0,0,1-.77-.61.78.78,0,0,1-.24-.56.74.74,0,0,1,.22-.56.78.78,0,0,1,.56-.24h0a.75.75,0,0,1,.55.22,2.88,2.88,0,0,0,.52.4.78.78,0,0,1,.35.5.79.79,0,0,1-.1.6A.8.8,0,0,1,49,31.06Zm-.65-1.76h0a.55.55,0,0,0-.32.14.45.45,0,0,0-.12.33.48.48,0,0,0,.13.32,4.88,4.88,0,0,0,.73.56.45.45,0,0,0,.62-.14.42.42,0,0,0,.06-.34.46.46,0,0,0-.2-.29h0a3.14,3.14,0,0,1-.57-.45A.48.48,0,0,0,48.35,29.3Z"/><path class="cls-1" d="M47.8,27.5a2.9,2.9,0,0,1-.07-.66v0a.61.61,0,0,0-.61-.63h0a.63.63,0,0,0-.63.61v.05a4.5,4.5,0,0,0,.09.9.63.63,0,0,0,.61.51l.12,0A.63.63,0,0,0,47.8,27.5Z"/><path class="cls-1" d="M47.18,28.41a.8.8,0,0,1-.78-.64,5.64,5.64,0,0,1-.08-.93v-.05a.79.79,0,0,1,.79-.78.76.76,0,0,1,.57.24.74.74,0,0,1,.22.56,3.3,3.3,0,0,0,.06.66h0a.76.76,0,0,1-.12.59.79.79,0,0,1-.5.34Zm-.07-2.06a.46.46,0,0,0-.46.45v0a4.14,4.14,0,0,0,.09.87.45.45,0,0,0,.53.36.48.48,0,0,0,.29-.19.49.49,0,0,0,.07-.35h0a3.85,3.85,0,0,1-.06-.69.53.53,0,0,0-.13-.36A.49.49,0,0,0,47.11,26.35Z"/><path class="cls-1" d="M55.48,30.26h-.83a.63.63,0,0,0,0,1.25h.83a.63.63,0,0,0,0-1.25Z"/><path class="cls-1" d="M55.48,31.68h-.83a.8.8,0,0,1,0-1.59h.83a.8.8,0,0,1,0,1.59Zm-.83-1.25a.46.46,0,0,0-.45.46.45.45,0,0,0,.45.45h.83a.45.45,0,0,0,.45-.45.46.46,0,0,0-.45-.46Z"/><path class="cls-1" d="M65.5,31.53a5.6,5.6,0,0,0-.76-.51.62.62,0,0,0-.61,1.09,4.81,4.81,0,0,1,.6.4.57.57,0,0,0,.39.14.63.63,0,0,0,.38-1.12Z"/><path class="cls-1" d="M65.12,32.82a.84.84,0,0,1-.5-.17,3.92,3.92,0,0,0-.58-.39.84.84,0,0,1-.37-.48.78.78,0,0,1,.07-.6.8.8,0,0,1,1.08-.31,6.4,6.4,0,0,1,.79.53.8.8,0,0,1,.13,1.12A.79.79,0,0,1,65.12,32.82Zm-.69-1.71a.45.45,0,0,0-.22.85,5.6,5.6,0,0,1,.62.42.47.47,0,0,0,.64-.07.45.45,0,0,0-.07-.64h0a6.39,6.39,0,0,0-.74-.5A.46.46,0,0,0,64.43,31.11Z"/><path class="cls-1" d="M63.19,41.34a.63.63,0,0,0-.71-.53,4.21,4.21,0,0,1-.62,0h-.12a.63.63,0,0,0-.62.63.63.63,0,0,0,.63.62h.11a6.84,6.84,0,0,0,.79-.05A.64.64,0,0,0,63.19,41.34Z"/><path class="cls-1" d="M61.75,42.27a.8.8,0,1,1,0-1.59h.12a4.12,4.12,0,0,0,.6,0,.82.82,0,0,1,.59.15.8.8,0,0,1,.3.53h0a.78.78,0,0,1-.67.89,5.52,5.52,0,0,1-.81.06Zm0-1.25a.46.46,0,0,0,0,.91h.12a6.49,6.49,0,0,0,.77,0,.45.45,0,0,0,.3-.18.52.52,0,0,0,.09-.34h0a.47.47,0,0,0-.18-.3.42.42,0,0,0-.33-.08,4.82,4.82,0,0,1-.65,0Z"/><path class="cls-1" d="M65.94,39.59a.63.63,0,0,0-.88,0,4.7,4.7,0,0,1-.56.46.62.62,0,0,0-.16.87.6.6,0,0,0,.51.27.61.61,0,0,0,.36-.11,5.62,5.62,0,0,0,.71-.58A.62.62,0,0,0,65.94,39.59Z"/><path class="cls-1" d="M64.85,41.33a.8.8,0,0,1-.45-1.45,4.51,4.51,0,0,0,.54-.44.79.79,0,0,1,1.12,0h0a.8.8,0,0,1,0,1.12,6.06,6.06,0,0,1-.74.6A.8.8,0,0,1,64.85,41.33Zm.64-1.77a.42.42,0,0,0-.31.13,6.39,6.39,0,0,1-.59.47.46.46,0,0,0,.52.75,5.44,5.44,0,0,0,.69-.56.46.46,0,0,0-.31-.79Z"/><path class="cls-1" d="M67.16,36.55a.63.63,0,0,0-.73.5,5.56,5.56,0,0,1-.19.7.62.62,0,0,0,.38.8.78.78,0,0,0,.21,0,.62.62,0,0,0,.58-.42,5.61,5.61,0,0,0,.25-.89A.63.63,0,0,0,67.16,36.55Z"/><path class="cls-1" d="M66.83,38.76a.86.86,0,0,1-.27,0,.79.79,0,0,1-.48-1,4,4,0,0,0,.18-.68.79.79,0,0,1,1.56.29,6,6,0,0,1-.25.92A.8.8,0,0,1,66.83,38.76Zm.21-2a.47.47,0,0,0-.45.37,4.34,4.34,0,0,1-.19.73.45.45,0,0,0,.27.58.48.48,0,0,0,.59-.28,6.42,6.42,0,0,0,.23-.86.46.46,0,0,0-.36-.53Z"/><path class="cls-1" d="M67.53,34.55a6.49,6.49,0,0,0-.33-.87.62.62,0,0,0-.83-.3.63.63,0,0,0-.3.83,4.32,4.32,0,0,1,.26.68.63.63,0,0,0,.6.45l.17,0A.63.63,0,0,0,67.53,34.55Z"/><path class="cls-1" d="M66.93,35.51a.8.8,0,0,1-.77-.57,3.71,3.71,0,0,0-.24-.66.79.79,0,0,1,.38-1.05.8.8,0,0,1,1.06.38,6.27,6.27,0,0,1,.33.89h0a.79.79,0,0,1-.54,1Zm-.29-2a.58.58,0,0,0-.19,0,.46.46,0,0,0-.22.61,5.3,5.3,0,0,1,.26.7.45.45,0,0,0,.57.32.47.47,0,0,0,.3-.57h0a5,5,0,0,0-.31-.84A.46.46,0,0,0,66.64,33.49Z"/><path class="cls-1" d="M58.78,30.26H58a.63.63,0,0,0,0,1.25h.83a.63.63,0,0,0,0-1.25Z"/><path class="cls-1" d="M58.78,31.68H58a.8.8,0,0,1,0-1.59h.83a.8.8,0,0,1,0,1.59ZM58,30.43a.46.46,0,0,0-.45.46.45.45,0,0,0,.45.45h.83a.45.45,0,0,0,.45-.45.46.46,0,0,0-.45-.46Z"/><path class="cls-1" d="M56,40.88h-.83a.63.63,0,0,0-.62.63.63.63,0,0,0,.63.62H56a.63.63,0,1,0,0-1.25Z"/><path class="cls-1" d="M55.15,42.3a.8.8,0,0,1-.8-.79.79.79,0,0,1,.23-.56.8.8,0,0,1,.56-.24H56a.8.8,0,1,1,0,1.59ZM56,41.05h-.82a.45.45,0,0,0-.33.14.46.46,0,0,0-.13.32.46.46,0,0,0,.46.45H56a.47.47,0,0,0,.46-.46.46.46,0,0,0-.46-.45Z"/><path class="cls-1" d="M62.1,30.27h-.85a.63.63,0,0,0,0,1.25h.83a.63.63,0,0,0,0-1.25Z"/><path class="cls-1" d="M62.08,31.69h-.83a.79.79,0,0,1-.79-.79.79.79,0,0,1,.79-.8h.86a.8.8,0,0,1,0,1.59Zm-.83-1.26a.46.46,0,0,0-.45.46.45.45,0,0,0,.45.45h.81a.46.46,0,0,0,.47-.44.45.45,0,0,0-.43-.47h-.85Z"/><path class="cls-1" d="M59.27,40.86h-.83a.63.63,0,1,0,0,1.25h.82a.63.63,0,0,0,.63-.62A.64.64,0,0,0,59.27,40.86Z"/><path class="cls-1" d="M58.45,42.29a.8.8,0,0,1-.57-1.36.79.79,0,0,1,.56-.23h.83a.79.79,0,0,1,0,1.58ZM59.27,41h-.83a.44.44,0,0,0-.45.45.47.47,0,0,0,.46.46h.82a.42.42,0,0,0,.32-.13.45.45,0,0,0,.14-.32.47.47,0,0,0-.46-.46Z"/><rect class="cls-2" width="90.38" height="77.57"/></g></g></svg>