<svg xmlns="http://www.w3.org/2000/svg" viewBox="0 0 90.38 77.57"><defs><style>.cls-1{fill:#c7c0b8;}.cls-2{fill:none;}</style></defs><g id="Capa_2" data-name="Capa 2"><g id="Capa_1-2" data-name="Capa 1"><path class="cls-1" d="M27.54,56.29a1.26,1.26,0,0,0,.36.46,2.9,2.9,0,0,0,.73.37,7.76,7.76,0,0,0,1.2.32,5.09,5.09,0,0,1,2.16.91,2,2,0,0,1,.7,1.6,2.32,2.32,0,0,1-.22,1,2.39,2.39,0,0,1-.62.79,2.74,2.74,0,0,1-.94.51,4.21,4.21,0,0,1-1.21.17,5.26,5.26,0,0,1-1.93-.34,5.64,5.64,0,0,1-1.66-1l.61-.73a5.16,5.16,0,0,0,1.4.93,3.94,3.94,0,0,0,1.62.31,2.33,2.33,0,0,0,1.43-.41,1.34,1.34,0,0,0,.53-1.1,1.43,1.43,0,0,0-.1-.56,1.2,1.2,0,0,0-.35-.44,2.39,2.39,0,0,0-.7-.37,8.94,8.94,0,0,0-1.14-.31A9.28,9.28,0,0,1,28.09,58a3.21,3.21,0,0,1-.92-.52,1.84,1.84,0,0,1-.55-.7,2.53,2.53,0,0,1-.17-1,2.25,2.25,0,0,1,.21-1,2.3,2.3,0,0,1,.6-.76,3,3,0,0,1,.92-.5,3.57,3.57,0,0,1,1.16-.18,5.09,5.09,0,0,1,1.69.26,5.36,5.36,0,0,1,1.4.8l-.58.77a4.33,4.33,0,0,0-1.24-.73,3.78,3.78,0,0,0-1.3-.22,2.35,2.35,0,0,0-.77.11,1.92,1.92,0,0,0-.59.3,1.47,1.47,0,0,0-.38.45,1.25,1.25,0,0,0-.13.57A1.48,1.48,0,0,0,27.54,56.29Z"/><path class="cls-1" d="M35.39,60.37a2.28,2.28,0,0,0,.52.69,2.21,2.21,0,0,0,.7.43,2.25,2.25,0,0,0,.82.14,2.45,2.45,0,0,0,1.16-.25,3.49,3.49,0,0,0,.89-.66l.6.54a3.93,3.93,0,0,1-1.12.88,3.21,3.21,0,0,1-1.56.34,3.1,3.1,0,0,1-1.25-.25,3.05,3.05,0,0,1-1-.69,3.31,3.31,0,0,1-.7-1.07,3.65,3.65,0,0,1-.26-1.38,3.87,3.87,0,0,1,.23-1.33A3.24,3.24,0,0,1,35,56.68a3,3,0,0,1,2.24-1,3,3,0,0,1,1.28.27,2.87,2.87,0,0,1,1,.74,3.1,3.1,0,0,1,.59,1.09,4.22,4.22,0,0,1,.2,1.34v.14a1,1,0,0,1,0,.17H35.14A2.89,2.89,0,0,0,35.39,60.37Zm3.91-1.65a3,3,0,0,0-.18-.84,2.46,2.46,0,0,0-.4-.71,2,2,0,0,0-.62-.48,2,2,0,0,0-.86-.18,1.9,1.9,0,0,0-.79.17,2,2,0,0,0-.63.46,2.21,2.21,0,0,0-.45.7,3.08,3.08,0,0,0-.23.88Z"/><path class="cls-1" d="M43.29,56.73a6.38,6.38,0,0,0-.92.34l-.29-.79a6.46,6.46,0,0,1,1.09-.39,4.86,4.86,0,0,1,1.27-.15,2.92,2.92,0,0,1,2.05.66,2.56,2.56,0,0,1,.71,2v4h-.93v-1a3.22,3.22,0,0,1-.91.78,2.84,2.84,0,0,1-1.44.33,3.28,3.28,0,0,1-.88-.12,2.36,2.36,0,0,1-.78-.38,2,2,0,0,1-.55-.64,1.8,1.8,0,0,1-.21-.89,2,2,0,0,1,.2-.91,1.72,1.72,0,0,1,.57-.66,2.63,2.63,0,0,1,.88-.4,4,4,0,0,1,1.13-.14,7,7,0,0,1,1.09.07,8.43,8.43,0,0,1,.9.2v-.22A1.68,1.68,0,0,0,45.76,57a2.1,2.1,0,0,0-1.42-.44A3.77,3.77,0,0,0,43.29,56.73ZM43,59.4a1.15,1.15,0,0,0-.49,1,1.18,1.18,0,0,0,.13.55,1.29,1.29,0,0,0,.36.41,1.5,1.5,0,0,0,.52.26,2.11,2.11,0,0,0,.62.09,2.84,2.84,0,0,0,.84-.13,2.07,2.07,0,0,0,.69-.37,1.77,1.77,0,0,0,.47-.55,1.52,1.52,0,0,0,.17-.71v-.63c-.25-.07-.52-.13-.84-.19A5.7,5.7,0,0,0,44.38,59,2.33,2.33,0,0,0,43,59.4Z"/><path class="cls-1" d="M54.34,60.48a1,1,0,0,0,.3.84,1.24,1.24,0,0,0,.79.24,2.26,2.26,0,0,0,.47-.05,1.62,1.62,0,0,0,.47-.18v.83a1.89,1.89,0,0,1-.53.21,2.48,2.48,0,0,1-.63.07,2.43,2.43,0,0,1-.73-.1,1.41,1.41,0,0,1-1-.89,2.38,2.38,0,0,1-.14-.84V56.69h-.9v-.86h.9v-2h1v2H56.4v.86H54.34Z"/><path class="cls-1" d="M64,60.38a3.37,3.37,0,0,1-.71,1.09,3.3,3.3,0,0,1-1.08.74,3.4,3.4,0,0,1-1.36.27,3.31,3.31,0,0,1-1.34-.27,3.5,3.5,0,0,1-1.07-.73,3.41,3.41,0,0,1-.7-1.08,3.34,3.34,0,0,1-.25-1.3,3.48,3.48,0,0,1,.25-1.32,3.41,3.41,0,0,1,.7-1.08A3.3,3.3,0,0,1,59.55,56a3.54,3.54,0,0,1,2.71,0,3.5,3.5,0,0,1,1.07.73A3.27,3.27,0,0,1,64,57.77a3.54,3.54,0,0,1,.25,1.3A3.4,3.4,0,0,1,64,60.38Zm-.92-2.28a2.57,2.57,0,0,0-.5-.81,2.44,2.44,0,0,0-.77-.54,2.17,2.17,0,0,0-1-.2,2.32,2.32,0,0,0-1,.19,2.07,2.07,0,0,0-.75.54,2.41,2.41,0,0,0-.48.8,2.68,2.68,0,0,0-.18,1,2.72,2.72,0,0,0,.18,1,2.52,2.52,0,0,0,.5.8,2.76,2.76,0,0,0,.76.54,2.36,2.36,0,0,0,1,.2,2.4,2.4,0,0,0,1-.2,2.22,2.22,0,0,0,.75-.53,2.45,2.45,0,0,0,.49-.79,2.74,2.74,0,0,0,0-2Z"/><path class="cls-1" d="M17.33,68.49a1.2,1.2,0,0,0,.37.46,2.74,2.74,0,0,0,.73.37,7.59,7.59,0,0,0,1.19.32,5.2,5.2,0,0,1,2.17.91,2,2,0,0,1,.69,1.6A2.31,2.31,0,0,1,21.65,74a2.69,2.69,0,0,1-.95.5,3.89,3.89,0,0,1-1.21.18,5.26,5.26,0,0,1-1.93-.34,5.64,5.64,0,0,1-1.66-1l.62-.73a5,5,0,0,0,1.39.93,3.94,3.94,0,0,0,1.62.31A2.31,2.31,0,0,0,21,73.36a1.35,1.35,0,0,0,.53-1.1,1.43,1.43,0,0,0-.1-.56,1.1,1.1,0,0,0-.35-.44,2.39,2.39,0,0,0-.7-.37,8.94,8.94,0,0,0-1.14-.31,10.12,10.12,0,0,1-1.32-.38,3.21,3.21,0,0,1-.92-.52,1.72,1.72,0,0,1-.54-.7,2.35,2.35,0,0,1-.18-1,2.25,2.25,0,0,1,.21-1,2.47,2.47,0,0,1,.61-.76,3,3,0,0,1,.91-.5,3.62,3.62,0,0,1,1.16-.18,4.84,4.84,0,0,1,1.69.26,5.36,5.36,0,0,1,1.4.8l-.58.77a4.11,4.11,0,0,0-1.24-.73,3.74,3.74,0,0,0-1.3-.23,2.35,2.35,0,0,0-.77.12,1.73,1.73,0,0,0-.59.3,1.47,1.47,0,0,0-.38.45,1.4,1.4,0,0,0-.13.57A1.7,1.7,0,0,0,17.33,68.49Z"/><path class="cls-1" d="M30.11,74.53H29l-2.32-3-1.32,1.33v1.7h-1V65.35h1v6.34L28.82,68H30L27.3,70.82Z"/><path class="cls-1" d="M34.47,74.74a3.63,3.63,0,0,1-.92,1.42,2,2,0,0,1-1.24.41,2.77,2.77,0,0,1-.73-.08,2.69,2.69,0,0,1-.65-.24l.32-.77a2,2,0,0,0,.47.18,2.26,2.26,0,0,0,.55.06,1.11,1.11,0,0,0,.74-.26,2.69,2.69,0,0,0,.59-1l-3-6.47h1.07l2.36,5.42L36.17,68h1Z"/><path class="cls-1" d="M46,74.53H45V66.65H42v-.92h6.9v.92H46Z"/><path class="cls-1" d="M55.15,72.58a3.21,3.21,0,0,1-.71,1.09,3.3,3.3,0,0,1-1.08.74,3.39,3.39,0,0,1-1.35.27,3.32,3.32,0,0,1-1.35-.27,3.63,3.63,0,0,1-1.07-.73,3.41,3.41,0,0,1-.7-1.08,3.34,3.34,0,0,1-.25-1.3A3.48,3.48,0,0,1,48.89,70a3.31,3.31,0,0,1,1.78-1.82A3.37,3.37,0,0,1,52,67.89a3.32,3.32,0,0,1,1.35.27,3.55,3.55,0,0,1,1.08.73,3.36,3.36,0,0,1,.7,1.07,3.43,3.43,0,0,1,.25,1.31A3.23,3.23,0,0,1,55.15,72.58Zm-.91-2.28A2.4,2.4,0,0,0,53,69a2.16,2.16,0,0,0-1-.2,2.33,2.33,0,0,0-1,.19,2.25,2.25,0,0,0-.75.54,2.79,2.79,0,0,0-.48.8,2.68,2.68,0,0,0-.18,1,2.72,2.72,0,0,0,.18,1,2.66,2.66,0,0,0,.51.8,2.49,2.49,0,0,0,.76.54,2.31,2.31,0,0,0,1,.2,2.37,2.37,0,0,0,1-.2,2.22,2.22,0,0,0,.75-.53,2.33,2.33,0,0,0,.49-.8,2.63,2.63,0,0,0,.18-1A2.72,2.72,0,0,0,54.24,70.3Z"/><path class="cls-1" d="M61.77,68h.95v6.5h-.95V73.39a2.84,2.84,0,0,1-.86.9,2.28,2.28,0,0,1-1.36.37,2.82,2.82,0,0,1-1-.18,2.25,2.25,0,0,1-1.27-1.36,3,3,0,0,1-.17-1.06V68h1v3.79a2.11,2.11,0,0,0,.47,1.44,1.68,1.68,0,0,0,1.33.52,1.92,1.92,0,0,0,.77-.14,1.66,1.66,0,0,0,.62-.42,1.9,1.9,0,0,0,.41-.64,2.23,2.23,0,0,0,.15-.83Z"/><path class="cls-1" d="M65.86,74.53h-1V68h1v1.7A3.62,3.62,0,0,1,66.3,69a2.84,2.84,0,0,1,.61-.59,2.45,2.45,0,0,1,.74-.37,2.73,2.73,0,0,1,.87-.11v1h-.08a2.62,2.62,0,0,0-1,.19,2.18,2.18,0,0,0-.82.56,2.57,2.57,0,0,0-.55.94,3.63,3.63,0,0,0-.21,1.29Z"/><path class="cls-1" d="M74.26,73.53a1.81,1.81,0,0,1-.49.61,2.3,2.3,0,0,1-.73.38,2.94,2.94,0,0,1-.91.13,4,4,0,0,1-1.42-.26,4.57,4.57,0,0,1-1.27-.69l.5-.69a4.38,4.38,0,0,0,1.09.61,3.38,3.38,0,0,0,1.15.21,1.61,1.61,0,0,0,1-.27.91.91,0,0,0,.38-.76v0a.75.75,0,0,0-.13-.42,1.2,1.2,0,0,0-.36-.3,3.13,3.13,0,0,0-.52-.24c-.2-.06-.4-.13-.61-.18l-.76-.25a3.15,3.15,0,0,1-.69-.33,1.74,1.74,0,0,1-.51-.5,1.41,1.41,0,0,1-.19-.76v0a1.73,1.73,0,0,1,.16-.76,1.66,1.66,0,0,1,.46-.59,2.06,2.06,0,0,1,.7-.38,2.86,2.86,0,0,1,.89-.13,4,4,0,0,1,1.22.19,5,5,0,0,1,1.12.52l-.44.73a4.9,4.9,0,0,0-1-.46,3.11,3.11,0,0,0-1-.17A1.41,1.41,0,0,0,71,69a.83.83,0,0,0-.34.68v0a.59.59,0,0,0,.14.4,1.11,1.11,0,0,0,.37.29,2.91,2.91,0,0,0,.53.23l.63.2c.25.07.5.16.75.25a3,3,0,0,1,.67.35,1.7,1.7,0,0,1,.48.52,1.42,1.42,0,0,1,.18.74v0A1.84,1.84,0,0,1,74.26,73.53Z"/><path class="cls-1" d="M36.77,43.45H53.61a10.66,10.66,0,0,0,9.6-5.93,21.43,21.43,0,0,0,0-19.15,10.69,10.69,0,0,0-9.6-5.93H46.38V6.33l8.5-1a1.2,1.2,0,0,0,1-1.32v0a1.18,1.18,0,0,0-1.3-1h-.05L35.5,5.28a1.2,1.2,0,1,0,.15,2.39h.15l8.2-1v5.81H36.77a10.69,10.69,0,0,0-9.6,5.93,21.43,21.43,0,0,0,0,19.15A10.66,10.66,0,0,0,36.77,43.45Zm-7.46-24a8.26,8.26,0,0,1,7.46-4.61H53.61a8.26,8.26,0,0,1,7.46,4.61A19,19,0,0,1,63,26.75H53.54v-6A3.58,3.58,0,0,0,50,17.21H40.42a3.58,3.58,0,0,0-3.58,3.58v6H27.37A19,19,0,0,1,29.31,19.44Zm21.84,1.35V35.1A1.19,1.19,0,0,1,50,36.3H46.38V19.6H50A1.19,1.19,0,0,1,51.15,20.79ZM44,19.6V36.3H40.42a1.19,1.19,0,0,1-1.19-1.2V20.79a1.19,1.19,0,0,1,1.19-1.19Zm-7.16,9.54v6a3.58,3.58,0,0,0,3.58,3.58H50a3.58,3.58,0,0,0,3.58-3.58v-6H63a19,19,0,0,1-1.94,7.31,8.29,8.29,0,0,1-7.46,4.62H36.77a8.29,8.29,0,0,1-7.46-4.62,19,19,0,0,1-1.94-7.31Z"/><rect class="cls-2" width="90.38" height="77.57"/></g></g></svg>