<svg xmlns="http://www.w3.org/2000/svg" viewBox="0 0 90.38 77.57"><defs><style>.cls-1{fill:#c7c0b8;}.cls-2{fill:none;}</style></defs><g id="Capa_2" data-name="Capa 2"><g id="Capa_1-2" data-name="Capa 1"><path class="cls-1" d="M19.77,56.86a1.19,1.19,0,0,0,.36.46,2.89,2.89,0,0,0,.73.38,9.09,9.09,0,0,0,1.2.32,5.22,5.22,0,0,1,2.16.9,2,2,0,0,1,.7,1.6,2.32,2.32,0,0,1-.22,1,2.43,2.43,0,0,1-.62.8,2.9,2.9,0,0,1-.94.5,3.89,3.89,0,0,1-1.21.18,5.14,5.14,0,0,1-3.59-1.4L19,60.9a5.29,5.29,0,0,0,1.4.94,4.1,4.1,0,0,0,1.62.31,2.22,2.22,0,0,0,1.42-.42,1.31,1.31,0,0,0,.54-1.09,1.6,1.6,0,0,0-.1-.56,1.09,1.09,0,0,0-.36-.45,2.32,2.32,0,0,0-.69-.36A8.77,8.77,0,0,0,21.64,59a8.13,8.13,0,0,1-1.32-.38,3.41,3.41,0,0,1-.93-.51,2,2,0,0,1-.54-.71,2.48,2.48,0,0,1-.17-1,2.19,2.19,0,0,1,.21-1,2.11,2.11,0,0,1,.6-.76,2.84,2.84,0,0,1,.92-.51A3.57,3.57,0,0,1,21.57,54a4.63,4.63,0,0,1,3.09,1.07l-.58.76a4.29,4.29,0,0,0-1.24-.72,3.56,3.56,0,0,0-1.3-.23,2.65,2.65,0,0,0-.77.11,2.17,2.17,0,0,0-.59.3,1.4,1.4,0,0,0-.38.46,1.18,1.18,0,0,0-.13.56A1.48,1.48,0,0,0,19.77,56.86Z"/><path class="cls-1" d="M27.62,61a2.41,2.41,0,0,0,.52.69,2,2,0,0,0,.7.42,2.25,2.25,0,0,0,.82.15A2.45,2.45,0,0,0,30.82,62a3.53,3.53,0,0,0,.89-.67l.6.54a4,4,0,0,1-1.12.89,3.33,3.33,0,0,1-1.56.33,3.27,3.27,0,0,1-1.25-.24A3.19,3.19,0,0,1,26.64,61a3.65,3.65,0,0,1-.26-1.38,3.91,3.91,0,0,1,.23-1.33,3.46,3.46,0,0,1,.65-1.08,3.08,3.08,0,0,1,1-.72,2.92,2.92,0,0,1,1.25-.26,3,3,0,0,1,1.29.27,2.84,2.84,0,0,1,.95.73,3.19,3.19,0,0,1,.59,1.09,4.24,4.24,0,0,1,.2,1.35v.14a.92.92,0,0,1,0,.16H27.37A2.77,2.77,0,0,0,27.62,61Zm3.91-1.66a3.4,3.4,0,0,0-.18-.84,2.29,2.29,0,0,0-.4-.7,1.89,1.89,0,0,0-.63-.48,1.78,1.78,0,0,0-.85-.19,1.9,1.9,0,0,0-.79.17,2.08,2.08,0,0,0-.63.47,2.17,2.17,0,0,0-.45.69,2.86,2.86,0,0,0-.23.88Z"/><path class="cls-1" d="M35.18,62.9h-1V56.4h1v1.7a3.91,3.91,0,0,1,.44-.74,3.1,3.1,0,0,1,.61-.59A2.7,2.7,0,0,1,37,56.4a2.73,2.73,0,0,1,.87-.11v1h-.08a2.82,2.82,0,0,0-1,.19,2.33,2.33,0,0,0-.82.57,2.52,2.52,0,0,0-.55.93,3.71,3.71,0,0,0-.21,1.29Z"/><path class="cls-1" d="M44.12,56.4h1L42.33,63h-.85L38.67,56.4h1.06l2.19,5.39Z"/><path class="cls-1" d="M46.71,55V53.92h1.1V55Zm.06,7.92V56.4h1v6.5Z"/><path class="cls-1" d="M54.45,62.69a3,3,0,0,1-1.54.36,3.18,3.18,0,0,1-1.32-.27,3.29,3.29,0,0,1-1.06-.73,3.26,3.26,0,0,1-.7-1.07,3.56,3.56,0,0,1,0-2.62,3.34,3.34,0,0,1,.7-1.09,3.29,3.29,0,0,1,1.06-.73,3.18,3.18,0,0,1,1.32-.27,4.28,4.28,0,0,1,.84.08,2.67,2.67,0,0,1,.69.25A2.87,2.87,0,0,1,55,57a4.22,4.22,0,0,1,.49.45l-.64.68a4.28,4.28,0,0,0-.85-.69,2.07,2.07,0,0,0-1.12-.29,2.2,2.2,0,0,0-.92.19,2.31,2.31,0,0,0-.74.54,2.54,2.54,0,0,0-.49.81,2.62,2.62,0,0,0-.17,1,2.72,2.72,0,0,0,.18,1,2.57,2.57,0,0,0,.5.81A2.25,2.25,0,0,0,52,62a2.3,2.3,0,0,0,1,.19,2.13,2.13,0,0,0,1.11-.28A3.44,3.44,0,0,0,55,61.2l.61.58A4,4,0,0,1,54.45,62.69Z"/><path class="cls-1" d="M57.18,55V53.92h1.11V55Zm.07,7.92V56.4h1v6.5Z"/><path class="cls-1" d="M66.57,61a3.31,3.31,0,0,1-.71,1.09,3.27,3.27,0,0,1-1.08.73,3.36,3.36,0,0,1-1.35.27,3.31,3.31,0,0,1-2.41-1A3.13,3.13,0,0,1,60.31,61a3.56,3.56,0,0,1,0-2.62A3.21,3.21,0,0,1,61,57.27a3.33,3.33,0,0,1,1.07-.73,3.37,3.37,0,0,1,1.36-.27,3.32,3.32,0,0,1,1.35.27,3.27,3.27,0,0,1,1.78,1.8,3.36,3.36,0,0,1,.25,1.31A3.26,3.26,0,0,1,66.57,61Zm-.91-2.29a2.48,2.48,0,0,0-.51-.8,2.36,2.36,0,0,0-.77-.55,2.31,2.31,0,0,0-.95-.2,2.37,2.37,0,0,0-1,.19,2.25,2.25,0,0,0-.75.54,2.72,2.72,0,0,0-.48.81,2.63,2.63,0,0,0-.18,1,2.53,2.53,0,0,0,.19,1,2.26,2.26,0,0,0,.5.8,2.19,2.19,0,0,0,.76.54,2.31,2.31,0,0,0,1,.2,2.37,2.37,0,0,0,1-.19,2.25,2.25,0,0,0,.75-.54,2.29,2.29,0,0,0,.49-.79,2.68,2.68,0,0,0,.18-1A2.72,2.72,0,0,0,65.66,58.67Z"/><path class="cls-1" d="M72.86,61.9a2.09,2.09,0,0,1-.49.61,2,2,0,0,1-.73.38,3,3,0,0,1-.91.14,4.18,4.18,0,0,1-1.42-.26,4.46,4.46,0,0,1-1.27-.7l.49-.69a4.48,4.48,0,0,0,1.1.62,3.29,3.29,0,0,0,1.15.21,1.54,1.54,0,0,0,1-.28.85.85,0,0,0,.38-.75v0a.65.65,0,0,0-.13-.41,1.23,1.23,0,0,0-.36-.31,2.8,2.8,0,0,0-.52-.23L70.5,60l-.76-.24a2.77,2.77,0,0,1-.69-.34,1.59,1.59,0,0,1-.5-.5,1.35,1.35,0,0,1-.2-.75v0a1.73,1.73,0,0,1,.17-.76A1.63,1.63,0,0,1,69,56.8a2.19,2.19,0,0,1,.71-.38,3.06,3.06,0,0,1,.88-.13,4,4,0,0,1,1.22.2A4.59,4.59,0,0,1,72.9,57l-.44.73a4,4,0,0,0-.95-.46,2.8,2.8,0,0,0-1-.17,1.44,1.44,0,0,0-.92.27.81.81,0,0,0-.34.67v0a.6.6,0,0,0,.14.39,1.42,1.42,0,0,0,.37.3,2.92,2.92,0,0,0,.53.22l.63.2.75.25a2.86,2.86,0,0,1,.67.36,1.83,1.83,0,0,1,.49.51,1.42,1.42,0,0,1,.18.74v0A1.8,1.8,0,0,1,72.86,61.9Z"/><path class="cls-1" d="M9.73,75.1V73.79a5.68,5.68,0,0,1-.44.56,3.44,3.44,0,0,1-.55.46,2.56,2.56,0,0,1-.67.31,2.68,2.68,0,0,1-.83.12A3,3,0,0,1,6.1,75a3,3,0,0,1-1-.66,3.16,3.16,0,0,1-.7-1.06,3.61,3.61,0,0,1-.27-1.43,3.54,3.54,0,0,1,.27-1.43,3.21,3.21,0,0,1,.7-1.07,3,3,0,0,1,1-.66,2.83,2.83,0,0,1,1.14-.23,2.69,2.69,0,0,1,.83.11,2.47,2.47,0,0,1,.68.3,3,3,0,0,1,.55.44,3.56,3.56,0,0,1,.43.53V65.93h1V75.1Zm-.15-4.28A2.61,2.61,0,0,0,9.05,70a2.57,2.57,0,0,0-.76-.5,2.19,2.19,0,0,0-.87-.18,2.38,2.38,0,0,0-.89.16,2.14,2.14,0,0,0-.72.49,2.25,2.25,0,0,0-.49.79,2.71,2.71,0,0,0-.19,1.06,2.63,2.63,0,0,0,.19,1,2.39,2.39,0,0,0,.49.8,2.12,2.12,0,0,0,.73.5,2.22,2.22,0,0,0,1.75,0,2.42,2.42,0,0,0,.76-.51,2.61,2.61,0,0,0,.53-.79,2.9,2.9,0,0,0,.19-1A2.82,2.82,0,0,0,9.58,70.82Z"/><path class="cls-1" d="M13.7,73.15a2.41,2.41,0,0,0,.52.69,2.18,2.18,0,0,0,.7.42,2.25,2.25,0,0,0,.82.15,2.58,2.58,0,0,0,1.16-.25,3.31,3.31,0,0,0,.88-.67l.61.54a4.15,4.15,0,0,1-1.12.89,3.33,3.33,0,0,1-1.56.33A3.27,3.27,0,0,1,14.46,75a3.19,3.19,0,0,1-1.74-1.77,3.65,3.65,0,0,1-.26-1.38,3.91,3.91,0,0,1,.23-1.33,3.46,3.46,0,0,1,.65-1.08,3.08,3.08,0,0,1,1-.72,3.15,3.15,0,0,1,2.53,0,2.79,2.79,0,0,1,1,.73,3.1,3.1,0,0,1,.59,1.09,4.54,4.54,0,0,1,.2,1.35v.14a.92.92,0,0,1,0,.16H13.45A2.77,2.77,0,0,0,13.7,73.15Zm3.91-1.66a3.93,3.93,0,0,0-.18-.84A2.29,2.29,0,0,0,17,70a2.05,2.05,0,0,0-.63-.49,2,2,0,0,0-1.64,0,1.93,1.93,0,0,0-.63.47,2.17,2.17,0,0,0-.45.69,2.86,2.86,0,0,0-.23.88Z"/><path class="cls-1" d="M25.37,73.25a1,1,0,0,0,.3.84,1.27,1.27,0,0,0,.8.24,1.83,1.83,0,0,0,.47,0,2.26,2.26,0,0,0,.47-.17v.83a2.06,2.06,0,0,1-.54.2,2.43,2.43,0,0,1-.63.07,2.48,2.48,0,0,1-.73-.1,1.43,1.43,0,0,1-.58-.32,1.56,1.56,0,0,1-.39-.57,2.39,2.39,0,0,1-.13-.84V69.46H23.5V68.6h.91v-2h1v2h2.06v.86H25.37Z"/><path class="cls-1" d="M30.11,75.1h-1V68.6h1v1.7a3.22,3.22,0,0,1,.44-.74,3,3,0,0,1,.6-.59,3,3,0,0,1,.74-.37,2.73,2.73,0,0,1,.87-.11v1h-.08a2.72,2.72,0,0,0-1,.19,2.37,2.37,0,0,0-.83.57,2.67,2.67,0,0,0-.55.93,4,4,0,0,0-.2,1.29Z"/><path class="cls-1" d="M35.22,69.5a6.12,6.12,0,0,0-.93.35L34,69.06a6.61,6.61,0,0,1,1.1-.4,4.89,4.89,0,0,1,1.27-.14,2.89,2.89,0,0,1,2,.66,2.5,2.5,0,0,1,.72,1.95v4H38.2v-1a3.36,3.36,0,0,1-.91.78,2.84,2.84,0,0,1-1.44.34,3.23,3.23,0,0,1-.88-.13,2.36,2.36,0,0,1-.78-.38,1.92,1.92,0,0,1-.56-.64,1.77,1.77,0,0,1-.2-.89,1.93,1.93,0,0,1,.2-.91,1.8,1.8,0,0,1,.57-.66,2.85,2.85,0,0,1,.88-.4,4.35,4.35,0,0,1,1.12-.14,7,7,0,0,1,1.1.08,6.88,6.88,0,0,1,.9.2v-.23a1.65,1.65,0,0,0-.51-1.32,2.07,2.07,0,0,0-1.42-.45A3.77,3.77,0,0,0,35.22,69.5Zm-.31,2.67a1.17,1.17,0,0,0-.49,1,1.13,1.13,0,0,0,.13.56,1.4,1.4,0,0,0,.36.41,1.67,1.67,0,0,0,.52.25,2.06,2.06,0,0,0,.62.09,2.55,2.55,0,0,0,.84-.13,2.51,2.51,0,0,0,.69-.36,1.65,1.65,0,0,0,.46-.56,1.41,1.41,0,0,0,.17-.71v-.63c-.24-.06-.52-.13-.83-.19a6.77,6.77,0,0,0-1.07-.08A2.31,2.31,0,0,0,34.91,72.17Z"/><path class="cls-1" d="M42.16,75.1h-1V68.6h1v1.13a3,3,0,0,1,.85-.89,2.31,2.31,0,0,1,1.37-.37,2.89,2.89,0,0,1,1,.18,2.18,2.18,0,0,1,.78.54,2.33,2.33,0,0,1,.49.82,3.23,3.23,0,0,1,.17,1.06v4h-1V71.31a2.09,2.09,0,0,0-.46-1.44,1.7,1.7,0,0,0-1.34-.52,2,2,0,0,0-.77.14,1.86,1.86,0,0,0-.62.41,1.89,1.89,0,0,0-.41.65,2.45,2.45,0,0,0-.14.83Z"/><path class="cls-1" d="M53.21,74.1a1.94,1.94,0,0,1-.49.61,2,2,0,0,1-.73.38,3,3,0,0,1-.91.14A4.23,4.23,0,0,1,49.66,75a4.46,4.46,0,0,1-1.27-.7l.49-.69a4.13,4.13,0,0,0,1.1.61,3.09,3.09,0,0,0,1.15.22,1.59,1.59,0,0,0,1-.28.87.87,0,0,0,.37-.75v0a.65.65,0,0,0-.13-.41,1.23,1.23,0,0,0-.36-.31,2.8,2.8,0,0,0-.52-.23l-.61-.19L50.09,72a2.74,2.74,0,0,1-.69-.33,1.7,1.7,0,0,1-.5-.5,1.35,1.35,0,0,1-.2-.75v0a1.73,1.73,0,0,1,.17-.76,1.55,1.55,0,0,1,.46-.59,2.14,2.14,0,0,1,.7-.38,2.8,2.8,0,0,1,.88-.13,4.31,4.31,0,0,1,1.22.19,4.82,4.82,0,0,1,1.12.53l-.44.73a4,4,0,0,0-1-.46,2.8,2.8,0,0,0-1-.17,1.44,1.44,0,0,0-.92.27.84.84,0,0,0-.34.67v0a.61.61,0,0,0,.14.4,1.42,1.42,0,0,0,.37.3,4,4,0,0,0,.54.22l.62.2.75.25a2.86,2.86,0,0,1,.67.36,1.7,1.7,0,0,1,.49.51,1.42,1.42,0,0,1,.18.74v0A1.8,1.8,0,0,1,53.21,74.1Z"/><path class="cls-1" d="M61.48,73.28a3.32,3.32,0,0,1-.7,1.06,3.15,3.15,0,0,1-1,.67,3.06,3.06,0,0,1-1.15.23,2.73,2.73,0,0,1-.83-.12,2.47,2.47,0,0,1-.68-.3,2.54,2.54,0,0,1-.54-.44,3.18,3.18,0,0,1-.44-.53v3.26h-1V68.6h1v1.31a4.7,4.7,0,0,1,.45-.55,2.74,2.74,0,0,1,2-.89,3,3,0,0,1,1.14.22,3.11,3.11,0,0,1,1,.66,3.32,3.32,0,0,1,.7,1.06,4.09,4.09,0,0,1,0,2.87Zm-.91-2.46a2.37,2.37,0,0,0-.5-.79,2.19,2.19,0,0,0-.73-.51,2.16,2.16,0,0,0-.88-.17,2.19,2.19,0,0,0-.87.18,2.52,2.52,0,0,0-.75.5,2.44,2.44,0,0,0-.53.79,2.63,2.63,0,0,0-.2,1,2.7,2.7,0,0,0,.2,1,2.44,2.44,0,0,0,.53.79,2.38,2.38,0,0,0,.75.51,2.19,2.19,0,0,0,.87.18,2.43,2.43,0,0,0,.89-.17,2.13,2.13,0,0,0,.73-.49,2.31,2.31,0,0,0,.49-.79,2.89,2.89,0,0,0,.18-1A2.84,2.84,0,0,0,60.57,70.82Z"/><path class="cls-1" d="M69.64,73.16a3.43,3.43,0,0,1-.71,1.08,3.15,3.15,0,0,1-1.08.74,3.4,3.4,0,0,1-1.36.27,3.35,3.35,0,0,1-2.41-1,3.11,3.11,0,0,1-.7-1.07,3.56,3.56,0,0,1,0-2.62,3.19,3.19,0,0,1,.7-1.09,3.33,3.33,0,0,1,1.07-.73,3.56,3.56,0,0,1,2.72,0,3.47,3.47,0,0,1,1.07.72,3.43,3.43,0,0,1,.71,1.08,3.55,3.55,0,0,1,.25,1.31A3.44,3.44,0,0,1,69.64,73.16Zm-.92-2.29a2.38,2.38,0,0,0-.51-.8,2.32,2.32,0,0,0-.76-.55,2.36,2.36,0,0,0-1-.2,2.32,2.32,0,0,0-1,.19,2.07,2.07,0,0,0-.75.54,2.61,2.61,0,0,0-.49.8,2.94,2.94,0,0,0-.17,1,2.72,2.72,0,0,0,.18,1,2.39,2.39,0,0,0,1.26,1.34,2.36,2.36,0,0,0,1,.2,2.4,2.4,0,0,0,1-.19,2.25,2.25,0,0,0,.75-.54,2.45,2.45,0,0,0,.49-.79,2.68,2.68,0,0,0,.18-1A2.72,2.72,0,0,0,68.72,70.87Z"/><path class="cls-1" d="M72.61,75.1h-1V68.6h1v1.7a3.22,3.22,0,0,1,.44-.74,3.35,3.35,0,0,1,.6-.59,3,3,0,0,1,.74-.37,2.73,2.73,0,0,1,.87-.11v1h-.07a2.74,2.74,0,0,0-1,.19,2.37,2.37,0,0,0-.83.57,2.83,2.83,0,0,0-.55.93,4,4,0,0,0-.2,1.29Z"/><path class="cls-1" d="M78,73.25a1,1,0,0,0,.3.84,1.22,1.22,0,0,0,.79.24,1.74,1.74,0,0,0,.47,0,1.91,1.91,0,0,0,.47-.17v.83a1.87,1.87,0,0,1-.53.2,2.51,2.51,0,0,1-.64.07,2.37,2.37,0,0,1-.72-.1,1.41,1.41,0,0,1-1-.89,2.38,2.38,0,0,1-.14-.84V69.46h-.9V68.6h.9v-2h1v2H80.1v.86H78Z"/><path class="cls-1" d="M82.46,73.15a2.24,2.24,0,0,0,.52.69,2.08,2.08,0,0,0,.7.42,2.25,2.25,0,0,0,.82.15,2.58,2.58,0,0,0,1.16-.25,3.31,3.31,0,0,0,.88-.67l.61.54a4.15,4.15,0,0,1-1.12.89,3.65,3.65,0,0,1-2.82.09,3.3,3.3,0,0,1-1-.7,3.21,3.21,0,0,1-.7-1.07,3.46,3.46,0,0,1-.26-1.38,3.68,3.68,0,0,1,.23-1.33,3.28,3.28,0,0,1,.65-1.08,3.08,3.08,0,0,1,1-.72,3.15,3.15,0,0,1,2.53,0,2.79,2.79,0,0,1,1,.73,3.1,3.1,0,0,1,.59,1.09,4.54,4.54,0,0,1,.2,1.35v.14a.92.92,0,0,1,0,.16H82.21A2.77,2.77,0,0,0,82.46,73.15Zm3.91-1.66a3.93,3.93,0,0,0-.18-.84,2.29,2.29,0,0,0-.4-.7,2.05,2.05,0,0,0-.63-.49,1.9,1.9,0,0,0-.85-.18,1.86,1.86,0,0,0-.79.17,2.08,2.08,0,0,0-.64.47,2.57,2.57,0,0,0-.45.69,3.16,3.16,0,0,0-.22.88Z"/><path class="cls-1" d="M48.22,12.4H24.33a.83.83,0,0,1,0-1.65H48.22a.83.83,0,0,1,0,1.65Z"/><path class="cls-1" d="M48.22,15.12H24.33a.83.83,0,0,1,0-1.65H48.22a.83.83,0,0,1,0,1.65Z"/><path class="cls-1" d="M26.31,17.92a.83.83,0,0,1-.83-.82V11.57a.83.83,0,0,1,1.65,0V17.1A.82.82,0,0,1,26.31,17.92Z"/><path class="cls-1" d="M46.24,17.92a.82.82,0,0,1-.82-.82V11.57a.83.83,0,0,1,1.65,0V17.1A.83.83,0,0,1,46.24,17.92Z"/><path class="cls-1" d="M53.82,40.9H37.43a.83.83,0,0,1-.68-.35l-.91-1.32a1.09,1.09,0,0,0-.61-.53.83.83,0,0,1-.46-1.07.83.83,0,0,1,1.07-.46,2.81,2.81,0,0,1,1.39,1.17l.63.92h16a.82.82,0,1,1,0,1.64Z"/><path class="cls-1" d="M24.58,40.82h-3a3.37,3.37,0,0,1-3.18-2.39l-.26-1a1.5,1.5,0,0,1,0-.2v-.06a36.65,36.65,0,0,1-1-8.84,36.32,36.32,0,0,1,1.27-9.61,3.47,3.47,0,0,1,3.26-2.5H61.07a4.73,4.73,0,0,1,4.2,2.68L69,27.14c.06.16.11.25.15.34a3.79,3.79,0,0,1,.21.47,10.28,10.28,0,0,1,.46,2.9v6.43a3.39,3.39,0,0,1-3.38,3.38H63.38a.83.83,0,0,1,0-1.65h3.05a1.76,1.76,0,0,0,1.73-1.73V30.85a8.43,8.43,0,0,0-.38-2.4,2.29,2.29,0,0,0-.11-.23,3.44,3.44,0,0,1-.21-.49l-3.68-8.16a3.1,3.1,0,0,0-2.71-1.73H21.61a1.81,1.81,0,0,0-1.68,1.31,34.39,34.39,0,0,0-1.2,9.15,34.9,34.9,0,0,0,1,8.53.64.64,0,0,1,0,.2v.07l.22.89a1.7,1.7,0,0,0,1.59,1.18h2.61l.66-1A3,3,0,0,1,26.85,37a.82.82,0,1,1,.23,1.63,1.33,1.33,0,0,0-.91.55l-.91,1.32A.82.82,0,0,1,24.58,40.82Z"/><path class="cls-1" d="M69,37.61H67.33a2.46,2.46,0,0,1-2.39-2.39v-.66a2.34,2.34,0,0,1,2.39-2.39H69a.83.83,0,1,1,0,1.65H67.33a.69.69,0,0,0-.74.74v.66a.8.8,0,0,0,.74.74H69a.83.83,0,1,1,0,1.65Z"/><path class="cls-1" d="M27.38,27.48H20.46a.83.83,0,1,1,0-1.65h6.09V19.57a.83.83,0,1,1,1.65,0v7.08A.83.83,0,0,1,27.38,27.48Z"/><path class="cls-1" d="M40.81,27.48H27.38a.83.83,0,1,1,0-1.65H40.81a.83.83,0,0,1,0,1.65Z"/><path class="cls-1" d="M54.23,27.48H40.81a.83.83,0,0,1-.83-.83V19.57a.83.83,0,1,1,1.65,0v6.26H53.41V19.57a.83.83,0,1,1,1.65,0v7.08A.83.83,0,0,1,54.23,27.48Z"/><path class="cls-1" d="M65.11,27.48H54.23a.83.83,0,0,1,0-1.65H65.11a.83.83,0,0,1,0,1.65Z"/><path class="cls-1" d="M58.68,45.68A5.69,5.69,0,1,1,64.29,40,5.65,5.65,0,0,1,58.68,45.68Zm0-9.72a4,4,0,1,0,4,4A4,4,0,0,0,58.68,36Z"/><path class="cls-1" d="M31.25,45.68A5.69,5.69,0,1,1,36.85,40,5.65,5.65,0,0,1,31.25,45.68Zm0-9.72a4,4,0,1,0,4,4A4,4,0,0,0,31.25,36Z"/><path class="cls-1" d="M56.79,32.17a.83.83,0,0,1-.83-.82V29.53a.83.83,0,0,1,1.65,0v1.82A.82.82,0,0,1,56.79,32.17Z"/><path class="cls-1" d="M39.24,32.17a.82.82,0,0,1-.82-.82V29.53a.82.82,0,0,1,1.64,0v1.82A.82.82,0,0,1,39.24,32.17Z"/><rect class="cls-2" width="90.38" height="77.57"/></g></g></svg>