<svg xmlns="http://www.w3.org/2000/svg" viewBox="0 0 44.24 42.92"><defs><style>.cls-1{fill:#c7c0b8;stroke:#c7c0b8;stroke-miterlimit:10;stroke-width:0.34px;}</style></defs><g id="Capa_2" data-name="Capa 2"><g id="Capa_1-2" data-name="Capa 1"><path class="cls-1" d="M10.61,13A10.45,10.45,0,0,0,.17,23.41c0,3.57,1.7,7.42,5.05,11.42.5.6,1,1.15,1.47,1.65-2.16.59-3.46,1.65-3.46,2.89,0,2.2,3.8,3.38,7.38,3.38S18,41.57,18,39.37c0-1.23-1.3-2.3-3.46-2.89A33.55,33.55,0,0,0,17.2,33.3a.62.62,0,1,0-1-.74A34.13,34.13,0,0,1,13,36.28a.7.7,0,0,0-.27.27c-.9.89-1.66,1.55-2.09,1.91-.43-.36-1.17-1-2.06-1.88a.64.64,0,0,0-.32-.31c-2.82-2.85-6.81-7.76-6.81-12.86a9.19,9.19,0,0,1,18.38,0,14,14,0,0,1-2.24,7.1.62.62,0,0,0,.22.86.61.61,0,0,0,.85-.22,15.2,15.2,0,0,0,2.42-7.74A10.45,10.45,0,0,0,10.61,13Zm-.38,26.79a.62.62,0,0,0,.76,0,32.13,32.13,0,0,0,2.51-2.24c2.11.43,3.24,1.26,3.24,1.85s-.61,1-1.59,1.37a12.42,12.42,0,0,1-4.54.76c-3.74,0-6.13-1.26-6.13-2.13,0-.59,1.13-1.42,3.24-1.85C9.12,38.89,10.16,39.7,10.23,39.76Z"/><path class="cls-1" d="M10.61,18.87a4.51,4.51,0,0,0-2.72.9.63.63,0,0,0-.12.88.62.62,0,0,0,.87.12,3.24,3.24,0,0,1,2-.65,3.29,3.29,0,1,1-3.29,3.29,3.08,3.08,0,0,1,.13-.91A.63.63,0,0,0,7,21.73a.61.61,0,0,0-.77.43,4.34,4.34,0,0,0-.18,1.25,4.54,4.54,0,1,0,4.54-4.54Z"/><path class="cls-1" d="M39.18,18.31c.31-.34.64-.71,1-1.1,2.6-3.1,3.92-6.09,3.92-8.87a8.17,8.17,0,0,0-15.7-3.18A.64.64,0,0,0,28.7,6a.63.63,0,0,0,.82-.34,6.93,6.93,0,0,1,13.3,2.7c0,5.16-5.42,10.1-6.92,11.37-.33-.28-.85-.73-1.47-1.33a.61.61,0,0,0-.27-.28C32,15.93,29,12.2,29,8.34a.63.63,0,1,0-1.25,0c0,2.78,1.32,5.77,3.92,8.87.33.39.65.76,1,1.1-1.61.48-2.54,1.31-2.54,2.3,0,.83.68,1.57,1.91,2.07a11.74,11.74,0,0,0,7.82,0c1.23-.5,1.91-1.24,1.91-2.07C41.72,19.62,40.79,18.79,39.18,18.31ZM35.9,22.1c-3,0-4.57-1-4.57-1.49,0-.33.73-.94,2.3-1.27A23.33,23.33,0,0,0,35.52,21a.65.65,0,0,0,.38.13.67.67,0,0,0,.38-.13s.83-.65,1.89-1.68a5.59,5.59,0,0,1,1.72.63c.36.21.58.45.58.64C40.47,21.11,38.85,22.1,35.9,22.1Z"/><path class="cls-1" d="M35.9,4.7a3.64,3.64,0,1,0,3.63,3.64A3.64,3.64,0,0,0,35.9,4.7Zm0,6a2.39,2.39,0,1,1,2.38-2.38A2.39,2.39,0,0,1,35.9,10.72Z"/><path class="cls-1" d="M27.8,20h-.29c-.2,0-.41,0-.62,0A.63.63,0,0,0,27,21.27h.08a3.4,3.4,0,0,1,.45,0h.29a.63.63,0,0,0,0-1.25Z"/><path class="cls-1" d="M25.73,38.72h-.82a.61.61,0,0,0-.62.63.62.62,0,0,0,.62.62h.83a.63.63,0,0,0,.62-.63A.63.63,0,0,0,25.73,38.72Z"/><path class="cls-1" d="M28.54,28.07h-.82a.63.63,0,1,0,0,1.25h.82a.63.63,0,0,0,0-1.25Z"/><path class="cls-1" d="M25.23,21.26a.62.62,0,0,0-.88,0,4.27,4.27,0,0,0-.63.71.63.63,0,0,0,.51,1,.61.61,0,0,0,.5-.26,3.3,3.3,0,0,1,.47-.52A.62.62,0,0,0,25.23,21.26Z"/><path class="cls-1" d="M29,38.7h-.82a.63.63,0,0,0-.63.62.64.64,0,0,0,.63.63H29a.63.63,0,1,0,0-1.25Z"/><path class="cls-1" d="M22.44,38.73h-.83a.62.62,0,0,0-.62.62.63.63,0,0,0,.62.63h.83a.63.63,0,0,0,0-1.25Z"/><path class="cls-1" d="M25.69,27.55a4.53,4.53,0,0,1-.55-.43.62.62,0,1,0-.86.9,4.69,4.69,0,0,0,.75.58.56.56,0,0,0,.33.1.62.62,0,0,0,.53-.29A.63.63,0,0,0,25.69,27.55Z"/><path class="cls-1" d="M24.16,25.31a3.6,3.6,0,0,1-.07-.66v0a.61.61,0,0,0-.61-.63h0a.61.61,0,0,0-.62.61v0a4.5,4.5,0,0,0,.08.9.62.62,0,0,0,.61.5h.12A.63.63,0,0,0,24.16,25.31Z"/><path class="cls-1" d="M31.84,28.07H31a.63.63,0,0,0,0,1.25h.83a.63.63,0,0,0,0-1.25Z"/><path class="cls-1" d="M41.86,29.34a5.6,5.6,0,0,0-.76-.51.62.62,0,0,0-.61,1.09,4.81,4.81,0,0,1,.6.4.64.64,0,0,0,.39.14.63.63,0,0,0,.38-1.12Z"/><path class="cls-1" d="M39.55,39.15a.63.63,0,0,0-.71-.53,4.21,4.21,0,0,1-.62,0H38.1a.63.63,0,1,0,0,1.25h.12a5.12,5.12,0,0,0,.78-.06A.62.62,0,0,0,39.55,39.15Z"/><path class="cls-1" d="M42.3,37.39a.62.62,0,0,0-.88,0,5.93,5.93,0,0,1-.56.46.62.62,0,0,0-.16.87.6.6,0,0,0,.51.27.69.69,0,0,0,.36-.11,6.64,6.64,0,0,0,.71-.58A.63.63,0,0,0,42.3,37.39Z"/><path class="cls-1" d="M43.52,34.36a.63.63,0,0,0-.73.5,5.56,5.56,0,0,1-.19.7.62.62,0,0,0,.38.8.76.76,0,0,0,.21,0,.63.63,0,0,0,.59-.41,6.88,6.88,0,0,0,.24-.89A.63.63,0,0,0,43.52,34.36Z"/><path class="cls-1" d="M43.89,32.35a6.86,6.86,0,0,0-.32-.86.63.63,0,0,0-1.14.53,4.32,4.32,0,0,1,.26.68.63.63,0,0,0,.6.45l.17,0A.64.64,0,0,0,43.89,32.35Z"/><path class="cls-1" d="M35.14,28.07h-.83a.63.63,0,0,0,0,1.25h.83a.63.63,0,0,0,0-1.25Z"/><path class="cls-1" d="M32.33,38.69H31.5a.63.63,0,1,0,0,1.25h.83a.63.63,0,0,0,.62-.63A.63.63,0,0,0,32.33,38.69Z"/><path class="cls-1" d="M38.46,28.08h-.85a.63.63,0,0,0,0,1.25h.83a.63.63,0,0,0,.62-.6A.61.61,0,0,0,38.46,28.08Z"/><path class="cls-1" d="M35.63,38.67H34.8a.63.63,0,0,0,0,1.25h.82a.63.63,0,1,0,0-1.25Z"/></g></g></svg>