<svg xmlns="http://www.w3.org/2000/svg" viewBox="0 0 90.38 77.57"><defs><style>.cls-1{fill:#c7c0b8;}.cls-2{fill:none;}</style></defs><g id="Capa_2" data-name="Capa 2"><g id="Capa_1-2" data-name="Capa 1"><path class="cls-1" d="M21,73.16a4.35,4.35,0,0,1-.8.48,4.54,4.54,0,0,1-.92.32,5.15,5.15,0,0,1-1.09.11,4.42,4.42,0,0,1-1.76-.35,4.12,4.12,0,0,1-1.39-1,4.35,4.35,0,0,1-.93-1.44,5,5,0,0,1,0-3.56,4.5,4.5,0,0,1,.93-1.45A4.26,4.26,0,0,1,18.26,65a5.09,5.09,0,0,1,1.08.1,4,4,0,0,1,.9.28,4.16,4.16,0,0,1,.77.44,7.08,7.08,0,0,1,.68.57L21,67.1a5.87,5.87,0,0,0-1.21-.87,3.58,3.58,0,0,0-2.91-.06,3.29,3.29,0,0,0-1.08.77,3.54,3.54,0,0,0-.71,1.15,3.9,3.9,0,0,0-.26,1.42,4,4,0,0,0,.26,1.43,3.58,3.58,0,0,0,.71,1.16,3.44,3.44,0,0,0,1.08.77,3.23,3.23,0,0,0,1.35.28,3.39,3.39,0,0,0,1.56-.33,5.13,5.13,0,0,0,1.28-.93l.66.64A8.22,8.22,0,0,1,21,73.16Z"/><path class="cls-1" d="M23.33,66V64.94h1.11V66Zm.06,7.91V67.43h1v6.49Z"/><path class="cls-1" d="M27.92,72.07a1,1,0,0,0,.3.85,1.22,1.22,0,0,0,.79.23,1.74,1.74,0,0,0,.47-.05,1.91,1.91,0,0,0,.47-.17v.83a2.25,2.25,0,0,1-.53.21,3.1,3.1,0,0,1-.64.06,2.37,2.37,0,0,1-.72-.1,1.36,1.36,0,0,1-.59-.32,1.39,1.39,0,0,1-.38-.57A2.3,2.3,0,0,1,27,72.2V68.28h-.9v-.85H27v-2h1v2H30v.85H27.92Z"/><path class="cls-1" d="M34.85,74.14a3.47,3.47,0,0,1-.92,1.41,1.88,1.88,0,0,1-1.24.42,3.26,3.26,0,0,1-.73-.08,3.76,3.76,0,0,1-.65-.25l.33-.76a2.27,2.27,0,0,0,.47.18,2.16,2.16,0,0,0,.54,0,1.09,1.09,0,0,0,.75-.26A2.68,2.68,0,0,0,34,73.9l-3-6.47H32.1l2.36,5.41,2.09-5.41h1Z"/><path class="cls-1" d="M46.36,73.92h-1V66H42.42v-.91h6.89V66h-3Z"/><path class="cls-1" d="M55.54,72a3.48,3.48,0,0,1-.71,1.09,3.27,3.27,0,0,1-1.08.73,3.4,3.4,0,0,1-1.36.27,3.35,3.35,0,0,1-2.41-1,3.11,3.11,0,0,1-.7-1.07,3.43,3.43,0,0,1,0-2.62,3.29,3.29,0,0,1,.7-1.09,3.33,3.33,0,0,1,1.07-.73,3.56,3.56,0,0,1,2.72,0,3.33,3.33,0,0,1,1.07.73,3.28,3.28,0,0,1,.71,1.07,3.59,3.59,0,0,1,.25,1.31A3.4,3.4,0,0,1,55.54,72Zm-.92-2.28a2.42,2.42,0,0,0-.51-.81,2.6,2.6,0,0,0-.76-.55,2.43,2.43,0,0,0-1.93,0,2.12,2.12,0,0,0-.74.54,2.39,2.39,0,0,0-.49.8,2.84,2.84,0,0,0-.17,1,2.72,2.72,0,0,0,.18,1A2.39,2.39,0,0,0,51.46,73a2.17,2.17,0,0,0,1,.2,2.32,2.32,0,0,0,1.72-.72,2.61,2.61,0,0,0,.49-.8,2.88,2.88,0,0,0,.17-1A2.72,2.72,0,0,0,54.62,69.7Z"/><path class="cls-1" d="M62.15,67.43h1v6.49h-1V72.79a3.16,3.16,0,0,1-.85.9,2.31,2.31,0,0,1-1.37.37,2.62,2.62,0,0,1-1-.19,2,2,0,0,1-.78-.53,2.37,2.37,0,0,1-.49-.83,3.17,3.17,0,0,1-.17-1.05v-4h1v3.79a2.08,2.08,0,0,0,.46,1.43,1.7,1.7,0,0,0,1.34.53A2.19,2.19,0,0,0,61,73a1.75,1.75,0,0,0,.61-.42A2.06,2.06,0,0,0,62,72a2.19,2.19,0,0,0,.15-.83Z"/><path class="cls-1" d="M66.25,73.92h-1V67.43h1v1.69a3.44,3.44,0,0,1,.44-.74,2.54,2.54,0,0,1,.6-.58,2.34,2.34,0,0,1,.74-.37,2.48,2.48,0,0,1,.87-.12v1h-.08a2.72,2.72,0,0,0-1,.18,2.37,2.37,0,0,0-.83.57,2.63,2.63,0,0,0-.55.94,3.86,3.86,0,0,0-.2,1.28Z"/><path class="cls-1" d="M74.65,72.92a2.09,2.09,0,0,1-.49.61,2.22,2.22,0,0,1-.73.39,3.33,3.33,0,0,1-.91.13,4.18,4.18,0,0,1-1.42-.26,4.23,4.23,0,0,1-1.27-.7l.49-.69a4.48,4.48,0,0,0,1.1.62,3.29,3.29,0,0,0,1.15.21,1.54,1.54,0,0,0,1-.28.85.85,0,0,0,.38-.75v0a.68.68,0,0,0-.13-.42,1.23,1.23,0,0,0-.36-.31,2.8,2.8,0,0,0-.52-.23L72.29,71l-.76-.24a3.17,3.17,0,0,1-.69-.34,1.59,1.59,0,0,1-.5-.5,1.35,1.35,0,0,1-.2-.75v0a1.76,1.76,0,0,1,.17-.76,1.63,1.63,0,0,1,.45-.59,2.3,2.3,0,0,1,.71-.38,3.12,3.12,0,0,1,.88-.13,4,4,0,0,1,1.22.2,4.43,4.43,0,0,1,1.12.52l-.44.73a4,4,0,0,0-1-.46,3.05,3.05,0,0,0-1-.17,1.44,1.44,0,0,0-.92.27.84.84,0,0,0-.34.67v0a.6.6,0,0,0,.14.39,1.25,1.25,0,0,0,.37.3,3,3,0,0,0,.54.22l.62.21a7.32,7.32,0,0,1,.75.25,2.83,2.83,0,0,1,.67.35,1.83,1.83,0,0,1,.49.51,1.42,1.42,0,0,1,.18.74v0A1.8,1.8,0,0,1,74.65,72.92Z"/><path class="cls-1" d="M47,39.67h-6.8a1.6,1.6,0,0,0-1.6,1.59V45a1.6,1.6,0,0,0,1.6,1.6H47a1.6,1.6,0,0,0,1.6-1.6V41.26A1.6,1.6,0,0,0,47,39.67Zm-.29,5H40.52V41.56h6.22Z"/><path class="cls-1" d="M48.63,45V41.26A1.6,1.6,0,0,0,47,39.67h-6.8a1.6,1.6,0,0,0-1.6,1.59V45a1.6,1.6,0,0,0,1.6,1.6H47A1.6,1.6,0,0,0,48.63,45Zm-1.89-.29H40.52V41.56h6.22Z"/><path class="cls-1" d="M19.47,53.16H13.58a.95.95,0,1,0,0,1.89h5.89a.95.95,0,1,0,0-1.89Z"/><path class="cls-1" d="M71,53.16h-.6a3.41,3.41,0,0,0,.36-1.53.91.91,0,0,0,0-.17h4.21a1,1,0,0,0,1-1V37.59a1,1,0,0,0-1-.94H70.42V20.8a2,2,0,0,0-2-2H63.11a2,2,0,0,0-2,2v5.07H59.79V14.47a1.94,1.94,0,0,0-1.93-1.93H54.59V7a1.64,1.64,0,0,0-1.14-1.56l-6-2a1.64,1.64,0,0,0-2.16,1.56V26.13H43.82V19.68A1.83,1.83,0,0,0,42,17.86H36.36a1.83,1.83,0,0,0-1.82,1.82v3h-3V12.43a1.78,1.78,0,0,0-1.78-1.78H24a1.79,1.79,0,0,0-1.79,1.78V17H18.48a1.68,1.68,0,0,0-1.68,1.68v20A8.61,8.61,0,0,0,15.49,40h0q-.16.2-.3.39L12,44.82a3.07,3.07,0,0,0-.58,1.8v2.75a2.09,2.09,0,0,0,2.08,2.09h8.14a.93.93,0,0,0,.49-.14c0,.1,0,.2,0,.31a3.41,3.41,0,0,0,.36,1.53h-.93a.95.95,0,0,0,0,1.89H46.17a.95.95,0,1,0,0-1.89H33.53a3.41,3.41,0,0,0,.36-1.53c0-.11,0-.22,0-.33a.94.94,0,0,0,.52.16H58.74l.19,0a1.15,1.15,0,0,0,0,.19,3.41,3.41,0,0,0,.36,1.53H54.2a.95.95,0,1,0,0,1.89H71a.95.95,0,1,0,0-1.89Zm-5.19-1.53a1.53,1.53,0,1,1,1.53,1.53A1.54,1.54,0,0,1,65.76,51.63ZM51.51,49.57l5.55-6.69a.63.63,0,0,1,.43-.17H74V44H58.15a.94.94,0,0,0-.74.37l-4.09,5.23ZM63,20.8a.09.09,0,0,1,.09-.09h5.33a.09.09,0,0,1,.09.09V36.65H65.32V27.57a1.71,1.71,0,0,0-1.71-1.7H63Zm-5.1,15.85V27.76h5.51v8.89ZM47.2,5.41l5.5,1.81V18.34a.95.95,0,0,0,1.89,0V14.43h3.27a0,0,0,0,1,0,0v11.4h-.17a1.7,1.7,0,0,0-1.7,1.7v9.08H54.59V22.12a.95.95,0,1,0-1.89,0V36.65H49.13V27.79a1.66,1.66,0,0,0-1.67-1.66H47.2Zm0,22.61v8.63H43.82V28ZM36.43,19.75h5.5v16.9H39V24.37a1.72,1.72,0,0,0-1.71-1.71h-.82ZM24.12,12.54h5.5V29.19a.95.95,0,1,0,1.89,0V24.55h5.56v12.1H31.51V33a.95.95,0,0,0-1.89,0v3.68h-5.5Zm-5.43,6.32h3.54V36.65a9,9,0,0,0-3.54.86Zm-2,22.7h7.67a.47.47,0,0,1,.47.47v2.19a.47.47,0,0,1-.47.47H14.42ZM24,51.63a1.53,1.53,0,1,1,1.53,1.53A1.53,1.53,0,0,1,24,51.63Zm4.95,0a1.53,1.53,0,1,1,1.53,1.53A1.53,1.53,0,0,1,29,51.63Zm5-3.12a.94.94,0,0,0-.72-.33H22.94a1,1,0,0,0-.69.3l-1,1.09H13.49a.2.2,0,0,1-.19-.2V46.58H24.35a2.36,2.36,0,0,0,2.36-2.36V42a2.36,2.36,0,0,0-2.36-2.36H18.68a7.16,7.16,0,0,1,3.86-1.13H74v2.28H57.49a2.54,2.54,0,0,0-1.8.76l0,.06-6.58,7.93H34.84ZM58.4,49.57H55.72l2.89-3.71H74v3.71H70.8l-1.55-1.3a1,1,0,0,0-.61-.22H60.56a.94.94,0,0,0-.6.22Zm2.41,2.06a1.53,1.53,0,1,1,1.53,1.53A1.54,1.54,0,0,1,60.81,51.63Z"/><path class="cls-1" d="M76.14,53.16H75a.95.95,0,1,0,0,1.89h1.15a.95.95,0,1,0,0-1.89Z"/><rect class="cls-2" width="90.38" height="77.57"/></g></g></svg>