<svg xmlns="http://www.w3.org/2000/svg" viewBox="0 0 90.38 77.57"><defs><style>.cls-1{fill:#c7c0b8;}.cls-2{fill:none;}</style></defs><g id="Capa_2" data-name="Capa 2"><g id="Capa_1-2" data-name="Capa 1"><path class="cls-1" d="M25.77,54.6h.82L29,61.94l2.51-7.32h1l-3.14,8.86h-.84l-2.41-7.14-2.43,7.14H22.9l-3.14-8.86h1.08l2.52,7.32Z"/><path class="cls-1" d="M35.15,63.41h-1V54.24h1v3.81a3.2,3.2,0,0,1,.86-.9,2.31,2.31,0,0,1,1.37-.37,2.69,2.69,0,0,1,1,.19,2.35,2.35,0,0,1,.78.53,2.53,2.53,0,0,1,.49.83,3.21,3.21,0,0,1,.16,1.05v4h-1V59.62a2.09,2.09,0,0,0-.47-1.43,1.68,1.68,0,0,0-1.33-.53,2,2,0,0,0-.77.15,1.64,1.64,0,0,0-.62.41,1.76,1.76,0,0,0-.41.65,2.19,2.19,0,0,0-.15.83Z"/><path class="cls-1" d="M42,55.5V54.43h1.11V55.5ZM42,63.41V56.92h1v6.49Z"/><path class="cls-1" d="M49.51,62.42A1.9,1.9,0,0,1,49,63a2.22,2.22,0,0,1-.73.39,3,3,0,0,1-.91.13A4.23,4.23,0,0,1,46,63.28a4.44,4.44,0,0,1-1.27-.69l.49-.7a4.17,4.17,0,0,0,1.1.62,3.29,3.29,0,0,0,1.15.21,1.66,1.66,0,0,0,1-.27.9.9,0,0,0,.37-.76v0a.68.68,0,0,0-.13-.42,1.2,1.2,0,0,0-.36-.3,2.8,2.8,0,0,0-.52-.24l-.61-.19-.76-.24A3.66,3.66,0,0,1,45.7,60a1.74,1.74,0,0,1-.5-.51,1.35,1.35,0,0,1-.2-.75v0a1.73,1.73,0,0,1,.17-.76,1.79,1.79,0,0,1,.46-.6,2.12,2.12,0,0,1,.7-.37,2.8,2.8,0,0,1,.88-.13,4,4,0,0,1,1.22.19,4.43,4.43,0,0,1,1.12.52l-.44.73a4.9,4.9,0,0,0-1-.46,3.05,3.05,0,0,0-1-.17,1.44,1.44,0,0,0-.92.27.85.85,0,0,0-.34.67v0a.65.65,0,0,0,.14.4,1.22,1.22,0,0,0,.37.29,4.61,4.61,0,0,0,.54.23l.62.2c.26.07.5.16.75.25a2.83,2.83,0,0,1,.67.35,1.73,1.73,0,0,1,.49.52,1.4,1.4,0,0,1,.18.74v0A1.84,1.84,0,0,1,49.51,62.42Z"/><path class="cls-1" d="M52.67,61.57a1,1,0,0,0,.3.84,1.22,1.22,0,0,0,.79.24,2.34,2.34,0,0,0,.47,0,2.14,2.14,0,0,0,.47-.18v.83a2.44,2.44,0,0,1-.53.21,3.06,3.06,0,0,1-.64.07,2.72,2.72,0,0,1-.72-.1,1.6,1.6,0,0,1-.59-.32,1.5,1.5,0,0,1-.38-.58,2.3,2.3,0,0,1-.14-.84V57.77h-.91v-.85h.91V55h1v2h2.06v.85H52.67Z"/><path class="cls-1" d="M56.52,63.41V54.24h1v9.17Z"/><path class="cls-1" d="M60.58,61.46a2.24,2.24,0,0,0,.52.69,2.21,2.21,0,0,0,.7.43,2.25,2.25,0,0,0,.82.14,2.45,2.45,0,0,0,1.16-.25,3.28,3.28,0,0,0,.88-.66l.61.54a3.93,3.93,0,0,1-1.12.88,3.65,3.65,0,0,1-2.82.09,3.11,3.11,0,0,1-1-.69,3.42,3.42,0,0,1-.7-1.07,3.48,3.48,0,0,1-.26-1.39,3.59,3.59,0,0,1,.23-1.32,3.09,3.09,0,0,1,.65-1.08,3,3,0,0,1,1-.73,3,3,0,0,1,1.25-.26,2.9,2.9,0,0,1,1.28.27,2.81,2.81,0,0,1,1,.74,3.1,3.1,0,0,1,.59,1.09,4.52,4.52,0,0,1,.2,1.34v.14a.86.86,0,0,1,0,.16H60.33A2.65,2.65,0,0,0,60.58,61.46Zm3.91-1.65a3.8,3.8,0,0,0-.18-.84,2.34,2.34,0,0,0-.4-.71,1.89,1.89,0,0,0-1.48-.66,1.73,1.73,0,0,0-.79.17,2.22,2.22,0,0,0-.64.46,2.63,2.63,0,0,0-.45.7,3.07,3.07,0,0,0-.22.88Z"/><path class="cls-1" d="M68.14,63.41h-1V56.92h1v1.7a4,4,0,0,1,.44-.75,3,3,0,0,1,.61-.58,2.45,2.45,0,0,1,.74-.37,2.67,2.67,0,0,1,.86-.11v1h-.07a2.58,2.58,0,0,0-1,.19,2.18,2.18,0,0,0-.82.56,2.57,2.57,0,0,0-.55.94,3.63,3.63,0,0,0-.21,1.29Z"/><path class="cls-1" d="M32.88,75.61h-1V67.74H28.94v-.92h6.89v.92H32.88Z"/><path class="cls-1" d="M42.06,73.67a3.37,3.37,0,0,1-.71,1.09,3.27,3.27,0,0,1-1.08.73,3.4,3.4,0,0,1-1.36.27,3.27,3.27,0,0,1-1.34-.27,3.47,3.47,0,0,1-1.07-.72,3.43,3.43,0,0,1-.71-1.08,3.54,3.54,0,0,1-.25-1.3,3.64,3.64,0,0,1,.25-1.32A3.43,3.43,0,0,1,36.5,70a3.36,3.36,0,0,1,1.07-.74,3.56,3.56,0,0,1,2.72,0,3.33,3.33,0,0,1,1.07.73,3.11,3.11,0,0,1,.7,1.07,3.43,3.43,0,0,1,0,2.62Zm-.92-2.28a2.42,2.42,0,0,0-.51-.81,2.33,2.33,0,0,0-.77-.54,2.17,2.17,0,0,0-1-.21,2.4,2.4,0,0,0-1,.2,2.25,2.25,0,0,0-.75.54,2.63,2.63,0,0,0-.65,1.78,2.72,2.72,0,0,0,.18,1,2.57,2.57,0,0,0,.5.81,2.62,2.62,0,0,0,.76.54,2.39,2.39,0,0,0,2.68-.53,2.5,2.5,0,0,0,.49-.8,2.84,2.84,0,0,0,.17-1A2.72,2.72,0,0,0,41.14,71.39Z"/><path class="cls-1" d="M48.67,69.12h1v6.49h-1V74.48a3.16,3.16,0,0,1-.85.9,2.31,2.31,0,0,1-1.37.37,2.62,2.62,0,0,1-1.05-.19,2,2,0,0,1-.78-.53,2.42,2.42,0,0,1-.49-.82A3.23,3.23,0,0,1,44,73.15v-4h1v3.79a2.11,2.11,0,0,0,.46,1.44,1.7,1.7,0,0,0,1.34.52,2.19,2.19,0,0,0,.77-.14,1.75,1.75,0,0,0,.61-.42,2,2,0,0,0,.41-.64,2.23,2.23,0,0,0,.15-.83Z"/><path class="cls-1" d="M52.77,75.61h-1V69.12h1v1.69a3.71,3.71,0,0,1,.44-.74,2.75,2.75,0,0,1,.6-.58,2.57,2.57,0,0,1,.74-.37,2.48,2.48,0,0,1,.87-.11v1h-.08a2.53,2.53,0,0,0-1,.19,2.22,2.22,0,0,0-.83.56,2.72,2.72,0,0,0-.55.94,3.88,3.88,0,0,0-.2,1.29Z"/><path class="cls-1" d="M61.17,74.61a2,2,0,0,1-.49.61,2.22,2.22,0,0,1-.73.39,3,3,0,0,1-.91.13,4.18,4.18,0,0,1-1.42-.26,4.23,4.23,0,0,1-1.27-.7l.49-.69a4.17,4.17,0,0,0,1.1.62,3.29,3.29,0,0,0,1.15.21,1.6,1.6,0,0,0,1-.27.88.88,0,0,0,.38-.76v0a.68.68,0,0,0-.13-.42,1.2,1.2,0,0,0-.36-.3,2.8,2.8,0,0,0-.52-.24l-.61-.19-.76-.24a3.66,3.66,0,0,1-.69-.33,1.62,1.62,0,0,1-.5-.51,1.35,1.35,0,0,1-.2-.75v0a1.8,1.8,0,0,1,.17-.76,1.72,1.72,0,0,1,.45-.59,2.28,2.28,0,0,1,.71-.37,2.8,2.8,0,0,1,.88-.13,4,4,0,0,1,1.22.19,4.43,4.43,0,0,1,1.12.52l-.44.73a4.38,4.38,0,0,0-1-.46,3.05,3.05,0,0,0-1-.17,1.44,1.44,0,0,0-.92.27.85.85,0,0,0-.34.67v0a.65.65,0,0,0,.14.4,1.22,1.22,0,0,0,.37.29,4,4,0,0,0,.54.23l.62.2c.25.07.5.16.75.25a2.83,2.83,0,0,1,.67.35,1.74,1.74,0,0,1,.49.52,1.4,1.4,0,0,1,.18.74v0A1.77,1.77,0,0,1,61.17,74.61Z"/><path class="cls-1" d="M53.81,25.44A1.83,1.83,0,0,0,52,27.27v4.39a1.83,1.83,0,0,0,1.83,1.83h4.4A1.83,1.83,0,0,0,60,31.66V27.27a1.83,1.83,0,0,0-1.82-1.83Zm5,1.83v4.39a.61.61,0,0,1-.61.61h-4.4a.61.61,0,0,1-.61-.61V27.27a.61.61,0,0,1,.61-.61h4.4A.61.61,0,0,1,58.82,27.27ZM36.57,25.44h-4.4a1.83,1.83,0,0,0-1.82,1.83v4.39a1.83,1.83,0,0,0,1.82,1.83h4.4a1.83,1.83,0,0,0,1.83-1.83V27.27A1.83,1.83,0,0,0,36.57,25.44Zm.61,6.22a.61.61,0,0,1-.61.61h-4.4a.61.61,0,0,1-.61-.61V27.27a.61.61,0,0,1,.61-.61h4.4a.61.61,0,0,1,.61.61Zm27.08,8.66a4.54,4.54,0,0,0-1.79-.88V36.78a.62.62,0,0,0-.61-.61.61.61,0,0,0-.61.61v2.53a5.18,5.18,0,0,0-.87.11,8.91,8.91,0,0,1-1.53.2,7.5,7.5,0,0,1-3.29-.6,10.44,10.44,0,0,0-3.92-.77h0c-.29,0-.57,0-.83,0v-9.8a3.05,3.05,0,0,0-3-3H42.65a3.05,3.05,0,0,0-3,3v10A6,6,0,0,0,37,38a7.94,7.94,0,0,0-3.36.84,6.11,6.11,0,0,1-2.64.69,6,6,0,0,1-1.19-.1,5.05,5.05,0,0,0-.68-.07V23.88a2.46,2.46,0,0,0,1.74.82,2.4,2.4,0,0,0,1.8-.69,2.44,2.44,0,0,0,.76-1.78v-2.8a1.26,1.26,0,0,1,.53-1,1.26,1.26,0,0,1,2,1v2.76a2.52,2.52,0,0,0,2.39,2.52h.09a2.47,2.47,0,0,0,2.47-2.48v-8.4a.61.61,0,0,1,.26-.5l3.92-2.77a.21.21,0,0,1,.24,0L61,21.65a1.58,1.58,0,0,0,.24.15V34.35a.61.61,0,0,0,.61.61.62.62,0,0,0,.61-.61V22.21a3.09,3.09,0,0,0,1.77-.33A3.18,3.18,0,0,0,66,19a3.22,3.22,0,0,0-1.34-2.62L46,3.27a1.45,1.45,0,0,0-1.64,0L39.08,7a.61.61,0,0,0-.14.85.6.6,0,0,0,.84.14l5.29-3.73a.21.21,0,0,1,.24,0L63.9,17.41A2,2,0,0,1,64.74,19a2,2,0,0,1-1.06,1.77,1.87,1.87,0,0,1-2-.14L46,9.56a1.45,1.45,0,0,0-1.64,0l-3.92,2.77a1.84,1.84,0,0,0-.78,1.5v8.4a1.25,1.25,0,0,1-1.3,1.26,1.29,1.29,0,0,1-1.21-1.3V19.43a2.48,2.48,0,0,0-3.9-2,2.48,2.48,0,0,0-1,2v2.8a1.25,1.25,0,0,1-1.3,1.26,1.29,1.29,0,0,1-1.21-1.3v-.05l0-.29a1.1,1.1,0,0,0-.5-.84,1.08,1.08,0,0,0-1-.11,1.88,1.88,0,0,1-1.73-.24,2,2,0,0,1,0-3.25L38,9.24a.61.61,0,1,0-.7-1L34.56,10.2V8.55a1.42,1.42,0,0,0,1.22-1.4V6.34a1.42,1.42,0,0,0-1.42-1.42H28.12A1.41,1.41,0,0,0,26.7,6.34v.81a1.42,1.42,0,0,0,1.21,1.4V14.9l-2.14,1.51A3.22,3.22,0,0,0,24.43,19a3.15,3.15,0,0,0,3.48,3.18V39.48a4.68,4.68,0,0,0-1.87,1,4.52,4.52,0,0,0-1.61,3.47v0a.61.61,0,1,0,1.21,0v0a3.28,3.28,0,0,1,1.19-2.54,3.38,3.38,0,0,1,2.77-.74,8.48,8.48,0,0,0,1.41.12A7.23,7.23,0,0,0,34.13,40,6.62,6.62,0,0,1,37,39.21a5.06,5.06,0,0,1,2.91.79h0l.14.08a7.87,7.87,0,0,0,3.55,1.16,7.36,7.36,0,0,0,4.16-.85,8.21,8.21,0,0,1,3.83-.93,9.27,9.27,0,0,1,3.54.7,8.84,8.84,0,0,0,3.76.68,10.26,10.26,0,0,0,1.73-.23,3.35,3.35,0,0,1,2.86.66,3.28,3.28,0,0,1,1.24,2.58v.08a.61.61,0,1,0,1.21,0v-.08a4.48,4.48,0,0,0-1.69-3.53ZM33.35,11.06l-4.22,3V11h1.31a.61.61,0,0,0,0-1.22H29.13V8.57h4.22ZM27.91,6.34a.21.21,0,0,1,.21-.21h6.24a.2.2,0,0,1,.2.21v.81a.2.2,0,0,1-.2.2H28.12a.2.2,0,0,1-.21-.2ZM49.55,38.46a10.86,10.86,0,0,0-2.28.83,6.23,6.23,0,0,1-3.55.74,6.51,6.51,0,0,1-2.89-.92V28.48a1.83,1.83,0,0,1,1.82-1.82h5.08a1.83,1.83,0,0,1,1.82,1.82ZM42,16.6a3.2,3.2,0,1,0,3.2-3.21A3.2,3.2,0,0,0,42,16.6Zm5.19,0a2,2,0,1,1-2-2A2,2,0,0,1,47.18,16.6Zm.55,14.94a.61.61,0,0,0-.61.61v1.27a.61.61,0,1,0,1.21,0V32.15A.6.6,0,0,0,47.73,31.54Z"/><path class="cls-1" d="M65.35,44.69a.76.76,0,0,1-.76-.76v-.08a3.15,3.15,0,0,0-1.19-2.47,3.22,3.22,0,0,0-2.73-.63,10.63,10.63,0,0,1-1.76.24,8.71,8.71,0,0,1-3.81-.69,9,9,0,0,0-3.45-.69h0a8,8,0,0,0-3.77.92,7.57,7.57,0,0,1-4.23.86A7.89,7.89,0,0,1,40,40.21l-.14-.08a5,5,0,0,0-2.71-.77H37a6.51,6.51,0,0,0-2.82.72,7.36,7.36,0,0,1-3.18.81,7.78,7.78,0,0,1-1.44-.12,3.25,3.25,0,0,0-2.66.7,3.16,3.16,0,0,0-1.13,2.43.77.77,0,0,1-.76.79.76.76,0,0,1-.75-.76,4.67,4.67,0,0,1,3.49-4.56v-17a3.32,3.32,0,0,1-2.07-.59A3.28,3.28,0,0,1,24.28,19a3.37,3.37,0,0,1,1.41-2.74l2.08-1.47V8.67a1.56,1.56,0,0,1-1.22-1.52V6.34a1.57,1.57,0,0,1,1.57-1.57h6.24a1.57,1.57,0,0,1,1.57,1.57v.81a1.56,1.56,0,0,1-1.22,1.52V9.91l2.54-1.78A.74.74,0,0,1,37.81,8a.7.7,0,0,1,.49.31.74.74,0,0,1,.13.56.73.73,0,0,1-.31.49L26.56,17.53a1.84,1.84,0,0,0-.77,1.5,1.8,1.8,0,0,0,.77,1.51,1.76,1.76,0,0,0,1.6.22,1.23,1.23,0,0,1,1.66,1.08l0,.35a1.1,1.1,0,0,0,1.87.84,1.09,1.09,0,0,0,.34-.8v-2.8a2.63,2.63,0,0,1,5.25,0v2.76a1.14,1.14,0,0,0,1.07,1.15h0a1.11,1.11,0,0,0,.77-.31,1.09,1.09,0,0,0,.34-.8v-8.4a2,2,0,0,1,.83-1.62l3.92-2.77a1.6,1.6,0,0,1,1.82,0l15.7,11.1a1.72,1.72,0,0,0,1.81.12,1.79,1.79,0,0,0,1-1.63,1.84,1.84,0,0,0-.77-1.5L45.22,4.39s0,0-.06,0L39.87,8.13a.77.77,0,0,1-.57.12.75.75,0,0,1-.49-.31.73.73,0,0,1-.12-.56A.73.73,0,0,1,39,6.89l5.28-3.74a1.6,1.6,0,0,1,1.82,0L64.69,16.29A3.37,3.37,0,0,1,64.31,22a3.27,3.27,0,0,1-1.7.36v12a.74.74,0,0,1-.75.75.75.75,0,0,1-.76-.75V21.89l-.17-.12L45.22,10.68h-.06l-3.93,2.77a.47.47,0,0,0-.19.38v8.4a2.59,2.59,0,0,1-.8,1.89,2.53,2.53,0,0,1-1.92.73,2.66,2.66,0,0,1-2.52-2.66V19.43a1.09,1.09,0,0,0-.6-1,1.07,1.07,0,0,0-1.15.08,1.09,1.09,0,0,0-.47.9v2.8a2.63,2.63,0,0,1-.8,1.89,2.6,2.6,0,0,1-1.82.73h-.1a2.56,2.56,0,0,1-1.58-.62v15a3.43,3.43,0,0,1,.56.07,6.41,6.41,0,0,0,1.16.09,5.91,5.91,0,0,0,2.58-.67A7.85,7.85,0,0,1,37,37.85a5.94,5.94,0,0,1,2.47.41V28.48a3.19,3.19,0,0,1,3.19-3.19h5.08a3.19,3.19,0,0,1,3.19,3.19v9.64l.68,0a10.48,10.48,0,0,1,4,.78,7.57,7.57,0,0,0,3.24.59,7.82,7.82,0,0,0,1.5-.2,6.15,6.15,0,0,1,.75-.1V36.78a.76.76,0,0,1,.76-.76.75.75,0,0,1,.75.76v2.54a4.7,4.7,0,0,1,1.74.88h0a4.67,4.67,0,0,1,1.75,3.65v.08A.76.76,0,0,1,65.35,44.69Zm-4-4.31a3.49,3.49,0,0,1,3.5,3.47v.08a.45.45,0,0,0,.46.46.46.46,0,0,0,.46-.46v-.08a4.39,4.39,0,0,0-1.64-3.42h0a4.56,4.56,0,0,0-1.74-.85l-.11,0V36.78a.47.47,0,0,0-.46-.46.46.46,0,0,0-.46.46v2.68h-.15a4,4,0,0,0-.84.11,9.27,9.27,0,0,1-1.55.2,7.72,7.72,0,0,1-3.35-.61,10.26,10.26,0,0,0-3.87-.76c-.31,0-.58,0-.86,0h-.16v-10a2.9,2.9,0,0,0-2.89-2.89H42.65a2.9,2.9,0,0,0-2.89,2.89V38.7l-.21-.09A5.86,5.86,0,0,0,37,38.14a7.78,7.78,0,0,0-3.3.83,6.21,6.21,0,0,1-2.7.7,6.12,6.12,0,0,1-1.21-.1,4.6,4.6,0,0,0-.66-.07H29v-16l.26.29a2.36,2.36,0,0,0,1.63.78,2.32,2.32,0,0,0,2.41-2.33v-2.8a1.4,1.4,0,0,1,.59-1.14,1.38,1.38,0,0,1,1.46-.1,1.36,1.36,0,0,1,.76,1.24v2.76a2.38,2.38,0,0,0,2.24,2.37h.09a2.32,2.32,0,0,0,2.32-2.33v-8.4a.75.75,0,0,1,.32-.62L45,10.44a.33.33,0,0,1,.4,0L61.1,21.53l.22.14.08,0V34.35a.46.46,0,0,0,.46.46.47.47,0,0,0,.46-.46V22.05h.16a2.86,2.86,0,0,0,1.69-.32A3,3,0,0,0,65.81,19a3.09,3.09,0,0,0-1.29-2.5L45.92,3.4a1.26,1.26,0,0,0-1.46,0L39.17,7.13a.46.46,0,0,0-.19.3.46.46,0,0,0,.08.34.45.45,0,0,0,.64.11L45,4.15a.33.33,0,0,1,.4,0L64,17.29a2.14,2.14,0,0,1-.24,3.64,2,2,0,0,1-2.12-.15L45.92,9.68a1.26,1.26,0,0,0-1.46,0l-3.93,2.78a1.68,1.68,0,0,0-.71,1.37v8.4a1.36,1.36,0,0,1-.43,1,1.33,1.33,0,0,1-1,.4A1.45,1.45,0,0,1,37,22.19V19.43a2.31,2.31,0,0,0-1.25-2.06,2.32,2.32,0,0,0-3.4,2.06v2.8a1.36,1.36,0,0,1-.43,1,1.34,1.34,0,0,1-1,.4,1.45,1.45,0,0,1-1.35-1.45l0-.33A.94.94,0,0,0,28.26,21a2,2,0,0,1-1.87-.26,2.1,2.1,0,0,1-.9-1.75,2.15,2.15,0,0,1,.9-1.75L38,9.12a.46.46,0,0,0,.19-.3.46.46,0,0,0-.08-.34.46.46,0,0,0-.3-.19.46.46,0,0,0-.34.08l-3,2.12V8.42l.12,0a1.28,1.28,0,0,0,1.09-1.25V6.34a1.27,1.27,0,0,0-1.27-1.28H28.12a1.27,1.27,0,0,0-1.27,1.28v.81A1.27,1.27,0,0,0,27.94,8.4l.12,0V15l-2.2,1.55A3.09,3.09,0,0,0,24.57,19a3,3,0,0,0,3.33,3l.16,0V39.6l-.11,0a4.4,4.4,0,0,0-3.38,4.27.47.47,0,0,0,.46.49.45.45,0,0,0,.46-.46,3.47,3.47,0,0,1,1.24-2.69,3.52,3.52,0,0,1,2.9-.76,8,8,0,0,0,1.38.11,7.17,7.17,0,0,0,3.06-.78,6.86,6.86,0,0,1,3-.75,5.26,5.26,0,0,1,3,.81l.14.08a7.7,7.7,0,0,0,3.49,1.14,7.1,7.1,0,0,0,4.08-.83,8.28,8.28,0,0,1,3.9-.94h0a9.2,9.2,0,0,1,3.52.7,8.66,8.66,0,0,0,3.72.67,10.17,10.17,0,0,0,1.71-.23A3.44,3.44,0,0,1,61.39,40.38Zm-17.06-.17-.62,0a6.54,6.54,0,0,1-3-.94l-.08,0V28.48a2,2,0,0,1,2-2h5.08a2,2,0,0,1,2,2v10.1l-.12,0a10.65,10.65,0,0,0-2.25.81A6.38,6.38,0,0,1,44.33,40.21ZM41,39a6.2,6.2,0,0,0,2.75.86,6,6,0,0,0,3.48-.73,11.13,11.13,0,0,1,2.19-.81V28.48a1.67,1.67,0,0,0-1.67-1.67H42.65A1.67,1.67,0,0,0,41,28.48Zm6.75-4.85a.75.75,0,0,1-.76-.75V32.15a.76.76,0,1,1,1.51,0v1.27A.75.75,0,0,1,47.73,34.17Zm0-2.48a.46.46,0,0,0-.46.46v1.27a.46.46,0,0,0,.46.46.47.47,0,0,0,.46-.46V32.15A.47.47,0,0,0,47.73,31.69Zm10.48,1.95h-4.4a2,2,0,0,1-2-2V27.27a2,2,0,0,1,2-2h4.4a2,2,0,0,1,2,2v4.39A2,2,0,0,1,58.21,33.64Zm-4.4-8a1.68,1.68,0,0,0-1.68,1.68v4.39a1.68,1.68,0,0,0,1.68,1.68h4.4a1.68,1.68,0,0,0,1.67-1.68V27.27a1.68,1.68,0,0,0-1.67-1.68ZM36.57,33.64h-4.4a2,2,0,0,1-2-2V27.27a2,2,0,0,1,2-2h4.4a2,2,0,0,1,2,2v4.39A2,2,0,0,1,36.57,33.64Zm-4.4-8a1.68,1.68,0,0,0-1.67,1.68v4.39a1.68,1.68,0,0,0,1.67,1.68h4.4a1.68,1.68,0,0,0,1.68-1.68V27.27a1.68,1.68,0,0,0-1.68-1.68Zm26,6.83h-4.4a.76.76,0,0,1-.76-.76V27.27a.76.76,0,0,1,.76-.76h4.4a.76.76,0,0,1,.76.76v4.39A.76.76,0,0,1,58.21,32.42Zm-4.4-5.61a.46.46,0,0,0-.46.46v4.39a.46.46,0,0,0,.46.46h4.4a.46.46,0,0,0,.46-.46V27.27a.46.46,0,0,0-.46-.46ZM36.57,32.42h-4.4a.75.75,0,0,1-.75-.76V27.27a.75.75,0,0,1,.75-.76h4.4a.76.76,0,0,1,.76.76v4.39A.76.76,0,0,1,36.57,32.42Zm-4.4-5.61a.46.46,0,0,0-.46.46v4.39a.46.46,0,0,0,.46.46h4.4a.46.46,0,0,0,.46-.46V27.27a.46.46,0,0,0-.46-.46Zm13-6.86a3.36,3.36,0,1,1,3.35-3.35A3.36,3.36,0,0,1,45.19,20Zm0-6.41a3.06,3.06,0,1,0,3.06,3.06A3.07,3.07,0,0,0,45.19,13.54Zm0,5.19a2.14,2.14,0,1,1,2.14-2.13A2.14,2.14,0,0,1,45.19,18.73Zm0-4A1.84,1.84,0,1,0,47,16.6,1.84,1.84,0,0,0,45.19,14.76ZM29,14.33V10.85h1.46a.46.46,0,0,0,0-.92H29V8.42H33.5v2.72Zm.3-3.18v2.6L33.2,11V8.71H29.28v.92h1.16a.76.76,0,0,1,0,1.52ZM34.36,7.5H28.12a.35.35,0,0,1-.35-.35V6.34A.35.35,0,0,1,28.12,6h6.24a.35.35,0,0,1,.35.36v.81A.35.35,0,0,1,34.36,7.5ZM28.12,6.28a.06.06,0,0,0-.06.06v.81a.06.06,0,0,0,.06,0h6.24a.06.06,0,0,0,.06,0V6.34a.06.06,0,0,0-.06-.06Z"/><rect class="cls-2" width="90.38" height="77.57"/></g></g></svg>