<svg xmlns="http://www.w3.org/2000/svg" viewBox="0 0 213.6 92.08"><defs><style>.cls-1{fill:#fefffe;fill-rule:evenodd;}</style></defs><g id="Capa_2" data-name="Capa 2"><g id="Capa_1-2" data-name="Capa 1"><path class="cls-1" d="M39.6,1.7h10a25.06,25.06,0,0,1,7.5,17,175.35,175.35,0,0,1-.5,32q8.91,2.53,14-5,7.56-5,11.5,3a19.35,19.35,0,0,1,13.5-13,10.45,10.45,0,0,1,8.5,5,50.52,50.52,0,0,1,2,11q7.64-9.95,18-3a45.79,45.79,0,0,1,1.5,25q.89,11.51,6.5,1a101.21,101.21,0,0,0,11-32q6.06-7.22,13-1,.5,13,1,26,2,12.78,9,2,5.51-14,11-28,7.68-10.86,19.5-5.5a15,15,0,0,1-.5,15.5,78.07,78.07,0,0,1-10.5,10q2.79,21.27,15.5,4a169.08,169.08,0,0,0,9-15,2.17,2.17,0,0,1,3.5,0v3a74.41,74.41,0,0,1-20,24.5q-15.73,5-21.5-10.5-4.54,13.59-18.5,12.5a29.87,29.87,0,0,1-4.5-2.5,44.84,44.84,0,0,1-6.5-14,52.75,52.75,0,0,1-15,21h-9a14.76,14.76,0,0,1-5.5-11q-.09-11,.5-22a4.81,4.81,0,0,0-4.5,3q-3.46,6.69-6.5,13.5-6.69,3-11-3a48.81,48.81,0,0,0,1.5-24.5,20.81,20.81,0,0,0-7,10q-3.3,9.4-6,19-6.1,6.18-11-1a83.31,83.31,0,0,1-1-15,22.29,22.29,0,0,1-11.5,2,284.83,284.83,0,0,1-3,29h-6q-.72-15.26-1-30.5-9.29-2.39-18.5-4.5-.5,14-1,28-6.69,6.28-11-2a208.69,208.69,0,0,1-2-25,14.36,14.36,0,0,0-8.5,8,3.65,3.65,0,0,1-5,0v-5q5.07-8.28,15-8a79.94,79.94,0,0,1,5-28,6.6,6.6,0,0,1,8-1A38.13,38.13,0,0,1,39.6,1.7Zm2,4a4.6,4.6,0,0,1,4.5,2,43.17,43.17,0,0,1,2,8,205.58,205.58,0,0,1-.5,35,121.11,121.11,0,0,0-19-4,90.33,90.33,0,0,1,8.5-36A11.76,11.76,0,0,1,41.6,5.7Zm150,33q4.25,2.86,2.5,8a19.61,19.61,0,0,1-6.5,8A18.5,18.5,0,0,1,191.6,38.7Z"/><path class="cls-1" d="M146.6,24.7q15.48-.27,7,12.5-11.65,3.33-10.5-8.5A7,7,0,0,1,146.6,24.7Z"/><path class="cls-1" d="M39.6,1.7A8.27,8.27,0,0,1,43.72,0,8.56,8.56,0,0,1,49.6,1.7"/><path class="cls-1" d="M.6,53.7a5.53,5.53,0,0,0,0,5"/><path class="cls-1" d="M118.6,84.7a7.15,7.15,0,0,0,9,0"/><path class="cls-1" d="M47.6,84.7c0,4,.61,7.18,1.71,7.37s2.92-2.84,4.29-7.37"/></g></g></svg>